<!-- icon666.com - MILLIONS vector ICONS FREE --><svg version="1.1" id="Layer_1" xmlns="http://www.w3.org/2000/svg" xmlns:xlink="http://www.w3.org/1999/xlink" x="0px" y="0px" viewBox="0 0 512 512" style="enable-background:new 0 0 512 512;" xml:space="preserve"><g><g><path d="M266,91c-82.484,0-151.025,60.839-163.109,140H81v50h21.891C114.975,360.161,183.516,421,266,421 c90.981,0,165-74.019,165-165S356.981,91,266,91z M321,276h-75v-75h30v45h45V276z" fill="#000000" style="fill: rgb(132, 1, 158);"></path></g></g><g><g><path d="M371,43.75V0H161v43.749l-18.982,61.837C176.897,76.801,220.733,61,266,61c47.051,0,90.263,16.75,123.986,44.601 L371,43.75z" fill="#000000" style="fill: rgb(132, 1, 158);"></path></g></g><g><g><path d="M266,451c-45.267,0-89.103-15.801-123.982-44.586L161,468.251V512h210v-43.75l18.986-61.85 C356.263,434.25,313.051,451,266,451z" fill="#000000" style="fill: rgb(132, 1, 158);"></path></g></g></svg>