<!-- icon666.com - MILLIONS vector ICONS FREE --><svg id="Layer_1" enable-background="new 0 0 512 512" viewBox="0 0 512 512" xmlns="http://www.w3.org/2000/svg"><g><path d="m338.7 311.6c-3.1-3.4-9.5-8.9-18.3-8.9-6.4 0-13 3.1-18.9 9l-14.8 15c-7.8 7.9-18.4 12.3-29.5 12.4-11.1 0-21.7-4.5-29.5-12.4l-92.2-92.7c-16.3-16.4-16.2-42.9.2-59.1 0 0 0 0 .1-.1l14.5-14.3c12.6-12.6 12.6-25.9 0-38.5-1.9-1.9-47-47.5-53.2-53.3l-.2-.2c-5.6-5.6-11.9-8.5-18.4-8.5-6.4 0-12.9 2.9-18.8 8.5 0 0-.1.1-.1.1l-33.1 33.1c-8.9 8.6-14.2 20.2-15.1 32.6-1.5 18.9 1.9 38.4 11.2 63.3 14.9 40.2 37.4 77.7 70.8 118.1 40.6 48.5 89.4 86.7 145.1 113.7 20.5 9.8 47.9 21.4 77.8 23.3 1.7.1 3.4.1 4.9.1 16.8 0 29.8-5.5 40.8-17.3l.2-.2 30.3-31c12.2-12.7 12.1-26.5-.2-38.7zm33.4 95.6c-6.7 6.2-13 12.8-19 19.7-8.7 9.3-18.6 13.4-32 13.4-1.4 0-2.8 0-4.1-.1-27.8-1.8-53.8-12.8-73.4-22.1-54.1-26.2-101.6-63.4-141-110.6-32.5-39.1-54.4-75.5-68.8-114.5-8.7-23.2-11.9-41.1-10.5-58.1.6-9.5 4.8-18.5 11.6-25.1l20.2-20.2 11.6 11.6c2.3 2.3 6.1 2.3 8.5 0 2.3-2.3 2.3-6.1 0-8.5l-11.5-11.6 4.3-4.3c3.6-3.4 7.3-5.2 10.6-5.2 4 0 7.6 2.7 9.9 5l.3.3s.1.1.1.1c5.8 5.4 52.5 52.6 53 53.1 8 8 8 13.6 0 21.6l-3.8 3.8-34.6-34.5c-2.3-2.3-6.1-2.3-8.5 0-2.3 2.3-2.3 6.1 0 8.5l34.4 34.5-2.2 2.1c-21.1 20.9-21.3 54.9-.5 76 0 0 .1.1.1.1l92.2 92.8c10 10.2 23.7 15.9 38 16h.1c14.3 0 27.9-5.7 38-15.9l2.6-2.7 74.5 74.6zm11.9-11.9-3.1 3.3-74.6-74.7 3.8-3.8c2.1-2.1 6.1-5.5 10.4-5.5 4.4 0 8.1 3.6 9.5 5.1l.2.2 53.6 53.7c7.5 7.5 7.6 13.8.2 21.7z" fill="#000000" style="fill: rgb(132, 1, 158);"></path><path d="m58.4 182.9c-1.4-3.4-2.8-6.9-4-10.4-1.1-3.1-4.6-4.7-7.7-3.5-3.1 1.1-4.7 4.6-3.5 7.7 1.3 3.6 2.7 7.2 4.2 10.8 1.3 3.1 4.8 4.5 7.9 3.2 2.8-1.3 4.3-4.8 3.1-7.8z" fill="#000000" style="fill: rgb(132, 1, 158);"></path><path d="m66.7 201.5c-1.5-3-5-4.2-8-2.8s-4.2 5-2.8 8c14 29 33 57.8 58 88 2.1 2.6 5.9 2.9 8.4.8 2.6-2.1 2.9-5.9.8-8.4-24.4-29.5-42.8-57.4-56.4-85.6z" fill="#000000" style="fill: rgb(132, 1, 158);"></path><path d="m359.2 301c-3.3 0-6 2.7-6 5.9 0 3.3 2.7 5.9 5.9 6 17 .2 30.6 14 30.7 30.9 0 3.3 2.7 6.1 6 6.2 3.3-.1 6-2.8 6-6.2 0-23.5-19.1-42.8-42.6-42.8z" fill="#000000" style="fill: rgb(132, 1, 158);"></path><path d="m366 270.1c-3.3 0-6 2.8-6 6.1s2.7 5.9 6 6c30.1 0 54.9 24.6 55.1 55 0 3.2 2.7 5.8 5.9 5.8h.1c3.2.1 5.9-2.5 6-5.7v-.1c-.3-37.1-30.4-67.1-67.1-67.1z" fill="#000000" style="fill: rgb(132, 1, 158);"></path><path d="m458.8 84.2c-13.8-3.2-29.2-1.5-45.7 5.1-11.9-12.7-25.2-21-38.6-24.1-11.6-2.8-23.9-1.6-34.7 3.5-10.8-5.1-23.1-6.3-34.7-3.5-13.4 3.1-26.7 11.4-38.6 24.1-16.6-6.6-31.9-8.3-45.7-5.1-26.8 6.2-43.3 29.9-42.1 60.4 1.6 42.5 37.9 90.6 115.4 104 3.1.5 6.2.4 9.2-.3s5.9-2 8.4-3.9c10.1-7.4 19.5-15.7 28.2-24.9 8.6 9.1 18 17.5 28.1 24.9 2.5 1.8 5.4 3.2 8.4 3.9s6.2.8 9.2.3c77.5-13.4 113.8-61.5 115.4-104 1.2-30.4-15.4-54.2-42.2-60.4zm-157.9 153.2c-.1.1-.2.1-.3.1s-.2 0-.3 0c-73.8-11.2-108.3-54.9-109.8-93.3-1-24.8 11.6-43.3 32.8-48.3 12.3-2.9 26.5-.8 42.2 6.1 2.4 1.1 5.2.4 6.9-1.6 11-12.6 23.2-20.8 35.2-23.6 6.4-1.5 13-1.5 19.4 0-7.4 6.5-13.2 14.5-17.2 23.5-9.4 21.1-9.6 46.4-.6 71.2 5.3 14.1 12.9 27.2 22.4 38.9-9.1 10.1-19.4 19.1-30.7 27zm188-93.2c-1.4 38.4-35.9 82.1-109.8 93.3-.1 0-.2 0-.3 0s-.2-.1-.3-.1c-61.3-43.1-73.1-97.4-57.7-132.1 10.2-22.4 29.7-33.3 50.8-28.4 12 2.8 24.2 10.9 35.2 23.6 1.7 2 4.5 2.6 6.9 1.6 15.7-6.9 29.9-8.9 42.2-6.1 21.5 4.8 34 23.3 33 48.2z" fill="#000000" style="fill: rgb(132, 1, 158);"></path></g></svg>