<!-- icon666.com - MILLIONS vector ICONS FREE --><svg version="1.1" id="Layer_1" xmlns="http://www.w3.org/2000/svg" xmlns:xlink="http://www.w3.org/1999/xlink" x="0px" y="0px" viewBox="0 0 512.001 512.001" style="enable-background:new 0 0 512.001 512.001;" xml:space="preserve"><g><g><path d="M506.232,281.449L385.97,161.196V59.077c0-10.875-8.818-19.692-19.692-19.692c-10.877,0-19.692,8.817-19.692,19.692v62.74 l-76.671-76.665c-7.689-7.689-20.158-7.689-27.849,0.001L5.768,281.451c-7.69,7.689-7.69,20.158,0,27.849 c3.845,3.847,8.884,5.769,13.924,5.769s10.08-1.922,13.924-5.769l45.154-45.153v188.777c0,10.875,8.817,19.692,19.692,19.692 h315.077c10.874,0,19.692-8.817,19.692-19.692V264.15l45.153,45.151c7.689,7.689,20.158,7.688,27.849-0.001 C513.924,301.608,513.923,289.14,506.232,281.449z M265.093,362.362l-9.093,7.853l-9.093-7.853 c-33.738-29.838-55.784-46.726-55.784-74.631c0-20.085,15.584-35.669,35.669-35.669c11.051,0,22.076,5.195,29.208,13.623 c7.129-8.428,18.146-13.623,29.208-13.623c20.085,0,35.669,15.584,35.669,35.669C320.878,312.414,298.831,332.523,265.093,362.362 z" fill="#000000" style="fill: rgb(132, 1, 158);"></path></g></g></svg>