<!-- icon666.com - MILLIONS vector ICONS FREE --><svg viewBox="0 0 64 64" xmlns="http://www.w3.org/2000/svg"><g id="Label_Sale" data-name="Label Sale"><path d="m27.5 58.127c-1.958-1.77-2.06-1.835-4.792-1.255-4.6.975-6.161.1-7.629-4.437-.839-2.6-.92-2.676-3.516-3.516-4.534-1.466-5.412-3.019-4.435-7.628.578-2.724.525-2.824-1.255-4.792-3.21-3.551-3.244-5.411 0-9 1.785-1.974 1.832-2.07 1.255-4.792-.976-4.6-.1-6.162 4.437-7.629 2.6-.839 2.676-.92 3.516-3.516 1.465-4.532 3.019-5.415 7.628-4.436 2.727.579 2.828.521 4.792-1.255 3.551-3.21 5.411-3.244 9 0 1.958 1.77 2.06 1.835 4.792 1.255 4.568-.971 6.152-.133 7.629 4.437.839 2.6.92 2.676 3.516 3.516 4.535 1.466 5.413 3.021 4.436 7.628-.578 2.724-.525 2.824 1.255 4.792 3.21 3.551 3.244 5.411 0 9-1.785 1.974-1.832 2.07-1.255 4.792.976 4.6.1 6.162-4.437 7.629-2.6.839-2.676.92-3.516 3.516-1.462 4.523-3.01 5.417-7.628 4.436-2.722-.579-2.824-.525-4.792 1.255-3.553 3.21-5.413 3.244-9.001 0zm2.013-2.227c2.378 2.15 2.589 2.157 4.973 0 2.693-2.435 3.694-2.758 7.427-1.964 3.046.642 3.18.582 4.152-2.425 1.147-3.549 1.885-4.3 5.447-5.447 3.005-.971 3.07-1.108 2.425-4.153-.792-3.733-.471-4.732 1.965-7.426 2.15-2.378 2.157-2.589 0-4.973-2.432-2.69-2.758-3.688-1.964-7.427.644-3.044.582-3.18-2.425-4.152-3.549-1.147-4.3-1.885-5.447-5.447-.971-3-1.108-3.073-4.153-2.425-3.739.794-4.738.466-7.426-1.965-2.378-2.15-2.589-2.157-4.973 0-2.693 2.434-3.689 2.755-7.427 1.965-3.043-.646-3.18-.583-4.152 2.424-1.147 3.549-1.885 4.3-5.447 5.447-3 .971-3.07 1.108-2.425 4.153.792 3.733.471 4.732-1.965 7.426-2.15 2.378-2.157 2.589 0 4.973 2.432 2.69 2.758 3.688 1.965 7.427-.645 3.044-.583 3.18 2.424 4.152 3.549 1.147 4.3 1.885 5.447 5.447.971 3.005 1.108 3.07 4.153 2.425 3.718-.786 4.713-.487 7.426 1.965z" fill="#000000" style="fill: rgb(132, 1, 158);"></path><path d="m39.39 47.5c-1.154 0-1.207-.176-7.16-3.441a.466.466 0 0 0 -.46 0l-5.484 3.008a3.564 3.564 0 0 1 -5.169-3.808l1.048-6.373a.7.7 0 0 0 -.179-.594l-4.436-4.515a3.66 3.66 0 0 1 1.978-6.177l6.131-.93a.558.558 0 0 0 .409-.325l2.742-5.8a3.508 3.508 0 0 1 6.38 0l2.742 5.8a.558.558 0 0 0 .409.325l6.131.93a3.66 3.66 0 0 1 1.978 6.175l-4.436 4.515a.7.7 0 0 0 -.179.594l1.048 6.373a3.607 3.607 0 0 1 -3.493 4.243zm-5.717-6.072 5.484 3.009c.406.224.847-.2.766-.692l-1.048-6.372a3.7 3.7 0 0 1 1-3.184l4.437-4.513a.664.664 0 0 0 -.29-1.106l-6.13-.93a3.549 3.549 0 0 1 -2.671-2.009l-2.742-5.8a.51.51 0 0 0 -.956 0l-2.742 5.8a3.549 3.549 0 0 1 -2.671 2.009l-6.13.93a.664.664 0 0 0 -.29 1.106l4.437 4.513a3.7 3.7 0 0 1 1 3.184c-1.044 6.347-1.306 6.669-.792 7.033a.448.448 0 0 0 .51.031l5.484-3.009a3.463 3.463 0 0 1 3.344-.002z" fill="#000000" style="fill: rgb(132, 1, 158);"></path></g></svg>