<svg viewBox="0 0 32 34" fill="none" xmlns="http://www.w3.org/2000/svg"><path d="M18 33.75H3.5A3.43 3.43 0 010 30.27V11.5c0-1.44.74-2.9 1.95-3.65L13.5.75c1.5-1 3.5-1 5 0l11.69 7.3c1.2.76 1.81 2.26 1.81 3.7v7l-14 15zm-11-7h12l6-6.5v-6.5l-9-5.5-9 5.5v13z" fill="url(#dc-logo-linear-2)"/><path d="M18 33.75V22.69c0-2.5 1.5-3.94 4-3.94h10l-14 15z" fill="#FBBC33"/><defs><linearGradient id="dc-logo-linear-2" x1=".71" y1="6.63" x2="25.75" y2="28.99" gradientUnits="userSpaceOnUse"><stop stop-color="#6BBD3F"/><stop offset=".62" stop-color="#209A73"/><stop offset="1" stop-color="#0276A2"/></linearGradient></defs></svg>