<!-- icon666.com - MILLIONS vector ICONS FREE --><svg id="Layer_1" enable-background="new 0 0 512 512" viewBox="0 0 512 512" xmlns="http://www.w3.org/2000/svg" xmlns:xlink="http://www.w3.org/1999/xlink"><linearGradient id="SVGID_1_" gradientUnits="userSpaceOnUse" x1="256" x2="256" y1="6.015" y2="505.984"><stop offset="0" stop-color="#00aae3"></stop><stop offset="1" stop-color="#58c3bd"></stop></linearGradient><path d="m299.08 174.4c0 3.31-2.69 6-6 6h-208.25c-3.31 0-6-2.69-6-6s2.69-6 6-6h208.25c3.31 0 6 2.68 6 6zm207.92 92.38v223.71c0 8.54-6.95 15.49-15.49 15.49h-174.14-306.37c-3.31 0-6-2.69-6-6v-64.81c0-54.67 44.48-99.15 99.16-99.15h26.16v-21.57c-17.35-13.62-29.87-33.14-34.5-55.51h-11.18c-15.93 0-28.89-12.96-28.89-28.89 0-8.96 4.1-16.98 10.53-22.29h-16.07c-3.31 0-6-2.69-6-6v-30.33c0-1.6.64-3.14 1.78-4.27l11.44-11.3c.49-25.08 8.31-49.7 22.31-70.56.12-.2.25-.39.4-.57 1.86-2.75 3.82-5.44 5.9-8.04 9.47-11.89 20.93-22 33.69-29.96.42-.35.89-.64 1.4-.86 10.31-6.25 21.45-11.1 33.08-14.31 4.63-14.79 18.46-25.56 34.75-25.56 16.3 0 30.12 10.76 34.75 25.56 11.63 3.21 22.77 8.05 33.08 14.31.51.22.98.51 1.4.86 12.76 7.96 24.22 18.07 33.69 29.96 2.08 2.61 4.04 5.3 5.91 8.05.14.18.27.37.39.56 13.99 20.86 21.82 45.48 22.31 70.57l11.44 11.3c1.14 1.13 1.78 2.66 1.78 4.27v30.33c0 3.31-2.69 6-6 6h-16.07c6.43 5.3 10.53 13.32 10.53 22.29 0 15.93-12.96 28.89-28.89 28.89h-11.17c-4.64 22.37-17.15 41.89-34.5 55.51v21.57h26.16c12.9 0 25.73 2.57 37.63 7.47v-76.72c0-8.54 6.95-15.49 15.49-15.49h164.64c8.52 0 15.47 6.95 15.47 15.49zm-195.63 89.85c-8.8-4.24-18.3-6.97-28-8.06v97.64h28zm-1.22-126.57c0-9.31-7.58-16.89-16.89-16.89h-9.19v26.44c0 2.47-.09 4.91-.28 7.33h9.47c9.31.01 16.89-7.57 16.89-16.88zm-49.79-167.52v70.69c0 7.36 5.99 13.36 13.36 13.36s13.36-5.99 13.36-13.36v-43.14c-7.33-10.52-16.34-19.83-26.72-27.55zm-95.81-20.12v54.29c0 13.46 10.95 24.4 24.4 24.4s24.4-10.95 24.4-24.4v-54.29c0-13.46-10.95-24.4-24.4-24.4s-24.4 10.94-24.4 24.4zm-73.72 47.67v43.14c0 7.36 5.99 13.36 13.36 13.36s13.36-5.99 13.36-13.36v-70.69c-10.39 7.72-19.39 17.03-26.72 27.55zm-34.62 105.68h265.49v-21.82l-11.41-11.27c-1.14-1.13-1.78-2.66-1.78-4.27 0-16.42-3.34-32.18-9.43-46.57v21.39c0 13.98-11.38 25.36-25.36 25.36s-25.36-11.38-25.36-25.36v-78.54c-7.2-4.11-14.89-7.52-23.01-10.11v52.13c0 20.07-16.33 36.4-36.4 36.4s-36.4-16.33-36.4-36.4v-52.14c-8.12 2.6-15.81 6-23.01 10.11v78.54c0 13.98-11.38 25.36-25.36 25.36s-25.36-11.38-25.36-25.36v-21.39c-6.08 14.39-9.43 30.15-9.43 46.57 0 1.6-.64 3.14-1.78 4.27l-11.41 11.27v21.83zm37.9 51.18c-.19-2.42-.28-4.87-.28-7.33v-26.44h-9.19c-9.31 0-16.89 7.58-16.89 16.89s7.58 16.89 16.89 16.89h9.47zm94.84 75.78c45.83 0 83.12-37.29 83.12-83.12v-31.84h-166.24v31.84c0 45.84 37.29 83.12 83.12 83.12zm-46.64-.24v19.54 5.04l46.64 48.7 46.64-48.7v-5.04-19.54c-13.79 7.79-29.7 12.25-46.64 12.25s-32.85-4.46-46.64-12.25zm-72.16 123.72h28v-97.98c-9.87.67-19.3 3-28 6.7zm-53.15 47.77h294.37v-35.77h-34c-3.31 0-6-2.69-6-6v-104.19h-23.78v1.45c0 1.55-.6 3.03-1.67 4.15l-50.97 53.23v45.36c0 3.31-2.69 6-6 6s-6-2.69-6-6v-45.36l-50.97-53.23c-1.07-1.12-1.67-2.6-1.67-4.15v-1.45h-20.16v104.19c0 3.31-2.69 6-6 6h-40c-3.31 0-6-2.69-6-6v-91.03c-24.68 15.41-41.15 42.82-41.15 74zm478-227.2c0-1.89-1.6-3.49-3.49-3.49h-164.65c-1.89 0-3.49 1.6-3.49 3.49v227.21h168.14c1.89 0 3.49-1.6 3.49-3.49zm-29.59 119.84h-112.45c-3.31 0-6 2.69-6 6s2.69 6 6 6h112.45c3.31 0 6-2.69 6-6s-2.69-6-6-6zm0 26.29h-112.45c-3.31 0-6 2.69-6 6s2.69 6 6 6h112.45c3.31 0 6-2.69 6-6s-2.69-6-6-6zm0 26.29h-112.45c-3.31 0-6 2.69-6 6s2.69 6 6 6h112.45c3.31 0 6-2.69 6-6s-2.69-6-6-6zm0 26.3h-112.45c-3.31 0-6 2.69-6 6s2.69 6 6 6h112.45c3.31 0 6-2.69 6-6s-2.69-6-6-6zm-108.67-132.47c-2.14-2.84-3.05-6.35-2.55-9.88.49-3.53 2.33-6.66 5.17-8.8l41.01-30.93c3.84-2.9 9-2.9 12.85 0l8.55 6.45c1.43-3.78 5.09-6.48 9.36-6.48h8c5.51 0 10 4.49 10 10v17.11l5.1 3.85c5.87 4.43 7.04 12.8 2.62 18.67l-.8 1.06c-2.62 3.47-6.62 5.3-10.66 5.3-1.24 0-2.47-.18-3.68-.53v30.26c0 4.77-3.88 8.65-8.65 8.65h-52.52c-4.77 0-8.65-3.88-8.65-8.65v-30.27c-5.15 1.48-10.92-.24-14.34-4.77zm54.36 20.73h-8.63v12.01h8.63zm18.59 12.01v-34.85l-22.91-17.28-22.91 17.28v34.85h6.59v-18.01c0-3.31 2.69-6 6-6h20.63c3.31 0 6 2.69 6 6v18.01zm-63.37-39.97.8 1.06c.43.57 1.29.7 1.87.26l34.19-25.78c2.14-1.61 5.09-1.61 7.22 0l34.19 25.78c.58.44 1.43.31 1.87-.26l.8-1.06c.43-.58.31-1.43-.26-1.87l-7.49-5.65c-1.5-1.13-2.39-2.91-2.39-4.79v-18.1h-4v6.04c0 2.28-1.29 4.36-3.32 5.37s-4.47.79-6.29-.58l-16.72-12.61-40.21 30.32c-.36.27-.48.63-.51.88s-.02.63.25.99z" ></path></svg>