<?xml version="1.0" ?>

<!-- Uploaded to: SVG Repo, www.svgrepo.com, Generator: SVG Repo Mixer Tools -->
<svg width="800px" height="800px" viewBox="0 0 512 512" id="Layer_1" version="1.1" xml:space="preserve" xmlns="http://www.w3.org/2000/svg" xmlns:xlink="http://www.w3.org/1999/xlink">


<g>

<path class="st0" d="M42.5,444.1H340c3.9,19,48.3,24.2,75,24.2c28,0,75.3-5.7,75.3-27V385v-56.3v-56.4c0-21.3-47.3-27-75.3-27   c-26.1,0-69.1,5-74.7,22.9c-5-13.3-10.7-25.5-17-36.5c-12.3-21.6-27.1-38.6-43.9-50.6c2.6-1.5,5.1-3.4,7.3-5.6   c6.5-6.5,10.1-15.1,10.1-24.4c0-19-15.5-34.4-34.5-34.4h-8.5c6.5-12.7,21.4-35.1,49.5-46.3c4.8-1.9,7.8-6.7,7.8-12.5   c0-8-6.3-14.3-14.3-14.3H126c-6.6,0-12.1,4.3-13.9,10.7c-1.7,6.2,0.9,12.5,6.4,15.7c31.9,18.5,45.3,36.6,50.7,46.7h-8.9   c-9.2,0-17.9,3.6-24.4,10.1c-6.5,6.5-10.1,15.2-10.1,24.4c0,12.8,7,24,17.4,29.9c-60.6,43.1-79.5,139.9-85.4,198.1l-28,23.5   c-7.6,6.3-10.2,17.2-6.7,27C26.4,438.6,33.8,444.1,42.5,444.1z M355.1,289.8c0.1,0.1,0.3,0.1,0.4,0.2c0.4,0.2,0.7,0.3,1.1,0.5   c0.1,0.1,0.3,0.1,0.4,0.2c0.4,0.2,0.8,0.3,1.3,0.5c0.1,0,0.2,0.1,0.3,0.1c0.5,0.2,1,0.4,1.6,0.6c0.1,0,0.2,0.1,0.4,0.1   c0.4,0.1,0.8,0.3,1.2,0.4c0.2,0.1,0.3,0.1,0.5,0.2c0.4,0.1,0.9,0.3,1.3,0.4c0.1,0,0.2,0.1,0.4,0.1c0.6,0.2,1.1,0.3,1.7,0.5   c0.1,0,0.2,0.1,0.3,0.1c0.5,0.1,0.9,0.3,1.4,0.4c0.2,0,0.3,0.1,0.5,0.1c0.4,0.1,0.9,0.2,1.3,0.3c0.1,0,0.3,0.1,0.4,0.1   c0.6,0.1,1.2,0.3,1.8,0.4c0.1,0,0.2,0,0.2,0.1c0.5,0.1,1,0.2,1.6,0.3c0.2,0,0.4,0.1,0.5,0.1c0.5,0.1,0.9,0.2,1.4,0.3   c0.2,0,0.3,0.1,0.5,0.1c0.6,0.1,1.2,0.2,1.8,0.3c0,0,0,0,0.1,0c0.6,0.1,1.2,0.2,1.8,0.3c0.2,0,0.4,0.1,0.5,0.1   c0.5,0.1,0.9,0.1,1.4,0.2c0.2,0,0.4,0.1,0.6,0.1c0.6,0.1,1.2,0.2,1.7,0.3c0,0,0.1,0,0.1,0c0.6,0.1,1.2,0.2,1.9,0.3   c0.2,0,0.4,0,0.5,0.1c0.5,0.1,0.9,0.1,1.4,0.2c0.2,0,0.4,0,0.6,0.1c0.5,0.1,1.1,0.1,1.6,0.2c0.1,0,0.2,0,0.3,0   c0.6,0.1,1.2,0.1,1.9,0.2c0.2,0,0.3,0,0.5,0.1c0.5,0,0.9,0.1,1.4,0.1c0.2,0,0.4,0,0.6,0.1c0.5,0,1,0.1,1.4,0.1c0.1,0,0.3,0,0.4,0   c0.6,0.1,1.2,0.1,1.8,0.1c0.1,0,0.3,0,0.4,0c0.5,0,0.9,0.1,1.4,0.1c0.2,0,0.4,0,0.6,0c0.5,0,0.9,0.1,1.4,0.1c0.2,0,0.3,0,0.5,0   c0.6,0,1.2,0.1,1.8,0.1c0.1,0,0.2,0,0.4,0c0.5,0,0.9,0,1.4,0.1c0.2,0,0.4,0,0.6,0c0.4,0,0.9,0,1.3,0c0.2,0,0.3,0,0.5,0   c0.6,0,1.1,0,1.7,0c0.1,0,0.1,0,0.2,0c0.5,0,1,0,1.5,0c0.2,0,0.3,0,0.5,0c0.4,0,0.8,0,1.2,0c0.2,0,0.3,0,0.5,0c0.5,0,1.1,0,1.6,0   s1,0,1.6,0c0.2,0,0.3,0,0.5,0c0.4,0,0.8,0,1.2,0c0.2,0,0.3,0,0.5,0c0.5,0,0.9,0,1.4,0c0.1,0,0.2,0,0.3,0c0.5,0,1.1,0,1.7,0   c0.2,0,0.3,0,0.5,0c0.4,0,0.8,0,1.2,0c0.2,0,0.4,0,0.6,0c0.4,0,0.9,0,1.3-0.1c0.1,0,0.3,0,0.4,0c0.6,0,1.2-0.1,1.7-0.1   c0.2,0,0.4,0,0.5,0c0.4,0,0.9-0.1,1.3-0.1c0.2,0,0.4,0,0.6,0c0.4,0,0.9-0.1,1.3-0.1c0.2,0,0.3,0,0.5,0c0.6,0,1.2-0.1,1.8-0.1   c0.2,0,0.4,0,0.5,0c0.4,0,0.9-0.1,1.3-0.1c0.2,0,0.5,0,0.7-0.1c0.4,0,0.8-0.1,1.2-0.1c0.2,0,0.4,0,0.6-0.1c0.6-0.1,1.2-0.1,1.8-0.2   c0.2,0,0.3,0,0.5-0.1c0.5-0.1,0.9-0.1,1.4-0.2c0.2,0,0.5-0.1,0.7-0.1c0.4-0.1,0.8-0.1,1.2-0.2c0.2,0,0.4-0.1,0.7-0.1   c0.6-0.1,1.2-0.2,1.7-0.2c0.1,0,0.3,0,0.4-0.1c0.5-0.1,1-0.1,1.5-0.2c0.2,0,0.5-0.1,0.7-0.1c0.4-0.1,0.8-0.1,1.2-0.2   c0.2,0,0.5-0.1,0.7-0.1c0.5-0.1,1-0.2,1.5-0.3c0.1,0,0.3-0.1,0.4-0.1c0.6-0.1,1.1-0.2,1.7-0.3c0.2,0,0.4-0.1,0.6-0.1   c0.4-0.1,0.8-0.2,1.2-0.2c0.2,0,0.4-0.1,0.7-0.1c0.5-0.1,0.9-0.2,1.4-0.3c0.1,0,0.3-0.1,0.4-0.1c0.6-0.1,1.1-0.3,1.7-0.4   c0.2,0,0.4-0.1,0.6-0.1c0.4-0.1,0.8-0.2,1.2-0.3c0.2-0.1,0.4-0.1,0.6-0.2c0.4-0.1,0.8-0.2,1.2-0.3c0.2,0,0.3-0.1,0.5-0.1   c0.5-0.2,1.1-0.3,1.6-0.5c0.2,0,0.3-0.1,0.5-0.1c0.4-0.1,0.8-0.2,1.2-0.4c0.2-0.1,0.4-0.1,0.6-0.2c0.4-0.1,0.8-0.3,1.2-0.4   c0.1-0.1,0.3-0.1,0.4-0.2c0.5-0.2,1-0.4,1.5-0.6c0.1,0,0.2-0.1,0.3-0.1c0.4-0.2,0.8-0.3,1.2-0.5c0.2-0.1,0.3-0.1,0.5-0.2   c0.4-0.1,0.7-0.3,1.1-0.5c0.1-0.1,0.3-0.1,0.4-0.2c0.5-0.2,0.9-0.4,1.4-0.6c0,0,0,0,0,0v39.4c0,0.1-0.1,0.2-0.1,0.2   c0,0,0,0.1-0.1,0.1c-0.1,0.1-0.1,0.2-0.2,0.2c0,0.1-0.1,0.1-0.1,0.2c-0.1,0.1-0.2,0.2-0.3,0.3c-0.1,0.1-0.1,0.1-0.2,0.2   c-0.1,0.1-0.2,0.2-0.3,0.3c-0.1,0.1-0.2,0.1-0.2,0.2c-0.1,0.1-0.2,0.1-0.3,0.2c-0.1,0.1-0.2,0.2-0.3,0.3c-0.1,0.1-0.2,0.2-0.4,0.2   c-0.1,0.1-0.3,0.2-0.4,0.3c-0.1,0.1-0.3,0.2-0.4,0.2c-0.2,0.1-0.3,0.2-0.5,0.3c-0.1,0.1-0.2,0.1-0.4,0.2c-0.2,0.1-0.4,0.2-0.6,0.3   c-0.1,0.1-0.3,0.1-0.4,0.2c-0.2,0.1-0.5,0.2-0.7,0.3c-0.1,0.1-0.2,0.1-0.3,0.2c-0.3,0.1-0.6,0.3-0.9,0.4c-0.1,0.1-0.3,0.1-0.4,0.2   c-0.3,0.1-0.6,0.2-0.9,0.4c-0.1,0-0.2,0.1-0.3,0.1c-0.4,0.1-0.7,0.3-1.1,0.4c-0.1,0-0.2,0.1-0.3,0.1c-0.4,0.1-0.8,0.3-1.2,0.4   c-0.2,0.1-0.4,0.1-0.5,0.2c-0.4,0.1-0.7,0.2-1.1,0.4c-0.2,0-0.3,0.1-0.5,0.1c-0.4,0.1-0.8,0.3-1.3,0.4c-0.2,0.1-0.4,0.1-0.7,0.2   c-0.4,0.1-0.8,0.2-1.2,0.3c-0.2,0.1-0.4,0.1-0.6,0.2c-0.5,0.1-0.9,0.2-1.4,0.4c-0.2,0-0.4,0.1-0.6,0.1c-0.5,0.1-1,0.2-1.5,0.4   c-0.2,0.1-0.5,0.1-0.7,0.2c-0.5,0.1-1,0.2-1.5,0.3c-0.3,0.1-0.5,0.1-0.8,0.2c-0.5,0.1-1,0.2-1.5,0.3c-0.3,0.1-0.6,0.1-0.9,0.2   c-0.5,0.1-1,0.2-1.5,0.3c-0.3,0.1-0.6,0.1-0.9,0.1c-0.5,0.1-1.1,0.2-1.6,0.3c-0.3,0.1-0.7,0.1-1.1,0.2c-0.5,0.1-1,0.2-1.6,0.2   c-0.4,0.1-0.8,0.1-1.3,0.2c-0.5,0.1-1,0.1-1.5,0.2c-0.3,0-0.6,0.1-0.9,0.1c-0.6,0.1-1.3,0.2-1.9,0.2c-0.3,0-0.6,0.1-0.9,0.1   c-0.7,0.1-1.4,0.1-2,0.2c-0.2,0-0.5,0-0.7,0.1c-0.8,0.1-1.5,0.1-2.3,0.2c-0.3,0-0.7,0-1,0.1c-0.7,0.1-1.4,0.1-2.2,0.1   c-0.3,0-0.6,0-0.8,0c-0.8,0-1.6,0.1-2.5,0.1c-1.8,0.1-3.7,0.1-5.6,0.2c-1.6,0-3.2,0.1-4.9,0.1c-0.5,0-1.1,0-1.6,0c0,0-0.1,0-0.1,0   c-0.4,0-0.9,0-1.3,0c0,0-0.1,0-0.1,0c-2.1,0-4.4-0.1-7-0.2l-2.6-0.1c-1.3-0.1-2.5-0.1-3.9-0.3c-0.5,0-1-0.1-1.5-0.1   c0,0-0.1,0-0.1,0c-1.4-0.1-2.8-0.2-4.1-0.4c-0.1,0-0.1,0-0.2,0c-0.5,0-1-0.1-1.4-0.2c0,0-0.1,0-0.1,0c-2.2-0.2-4.4-0.5-6.4-0.8   c0,0-0.1,0-0.1,0c-0.2,0-0.5-0.1-0.7-0.1c-0.1,0-0.1,0-0.2,0c-2.3-0.4-4.5-0.8-6.6-1.2c0,0-0.1,0-0.1,0c-0.7-0.1-1.4-0.3-2.1-0.4   c0,0-0.1,0-0.1,0c-0.5-0.1-0.9-0.2-1.4-0.3c-1.4-0.3-2.5-0.6-3.4-0.9l-1.4-0.4c-0.9-0.3-1.7-0.5-2.5-0.8c-0.4-0.1-0.8-0.3-1.3-0.4   c0,0-0.1,0-0.1,0c-0.2-0.1-0.5-0.2-0.7-0.3c-0.3-0.1-0.5-0.2-0.8-0.3c-0.1,0-0.2-0.1-0.4-0.1c-0.2-0.1-0.5-0.2-0.7-0.3   c-0.5-0.2-1.1-0.5-1.6-0.7c-0.1,0-0.1-0.1-0.2-0.1c-0.3-0.2-0.7-0.3-1-0.5l-0.3-0.1c-0.4-0.2-0.9-0.5-1.4-0.7   c-0.1-0.1-0.3-0.1-0.5-0.3c-0.2-0.1-0.3-0.2-0.5-0.3c-0.1,0-0.1-0.1-0.2-0.1c-0.1-0.1-0.2-0.1-0.3-0.2c-0.1-0.1-0.3-0.2-0.4-0.3   c-0.2-0.1-0.3-0.3-0.5-0.4c-0.1-0.1-0.2-0.2-0.4-0.3c0,0-0.1-0.1-0.1-0.1c-0.1-0.1-0.1-0.1-0.2-0.2l-0.1-0.1c0-0.1-0.1-0.1-0.1-0.2   c-0.3-0.3-0.5-0.5-0.5-0.6c0,0,0,0,0-0.1c0,0,0-0.1,0-0.1v-15.3v-24.1c0,0,0,0,0,0C354.2,289.3,354.6,289.5,355.1,289.8z    M476.3,345.4v39.4c0,0.1-0.1,0.2-0.1,0.3c0,0,0,0.1-0.1,0.1c-0.1,0.1-0.2,0.2-0.2,0.3c0,0,0,0.1-0.1,0.1c-0.1,0.1-0.2,0.2-0.4,0.4   c0,0,0,0-0.1,0.1c-0.2,0.1-0.3,0.3-0.5,0.4c0,0,0,0,0,0c-3.9,3.1-15.1,7.6-33.5,9.9c-0.1,0-0.2,0-0.4,0c-0.8,0.1-1.7,0.2-2.6,0.3   c-0.1,0-0.2,0-0.3,0c-0.8,0.1-1.5,0.2-2.3,0.2c-0.2,0-0.4,0-0.6,0.1c-1,0.1-2,0.2-3,0.3c0,0,0,0-0.1,0c-1,0.1-2,0.1-3,0.2   c-0.1,0-0.1,0-0.2,0c-4.3,0.3-8.9,0.4-13.9,0.4c-11.4,0-22.6-0.9-32.3-2.5c-0.7-0.1-1.3-0.2-2-0.3c-0.1,0-0.1,0-0.2,0   c-1.9-0.3-3.7-0.7-5.3-1.1c-0.1,0-0.2,0-0.3-0.1c-0.5-0.1-0.9-0.2-1.4-0.3c0,0-0.1,0-0.1,0c-1-0.2-2-0.5-2.9-0.7c0,0,0,0,0,0   c-1-0.3-1.9-0.5-2.7-0.8c-0.1,0-0.2-0.1-0.3-0.1c-0.3-0.1-0.7-0.2-1-0.3c-0.1,0-0.2-0.1-0.3-0.1c-0.3-0.1-0.6-0.2-0.9-0.3   c-0.1,0-0.1,0-0.2-0.1c-0.3-0.1-0.6-0.2-1-0.3c-0.1,0-0.1,0-0.2-0.1c-0.3-0.1-0.6-0.2-0.9-0.3c-0.1,0-0.2-0.1-0.3-0.1   c-0.2-0.1-0.5-0.2-0.7-0.3c-0.1,0-0.1-0.1-0.2-0.1c-0.3-0.1-0.5-0.2-0.7-0.3c-0.1,0-0.2-0.1-0.2-0.1c-0.2-0.1-0.4-0.2-0.6-0.3   c-0.1,0-0.2-0.1-0.3-0.1c-0.2-0.1-0.4-0.2-0.5-0.3c-0.1,0-0.2-0.1-0.3-0.1c-0.2-0.1-0.3-0.2-0.5-0.2c-0.1,0-0.2-0.1-0.3-0.1   c-0.1-0.1-0.3-0.1-0.4-0.2c-0.1-0.1-0.2-0.1-0.3-0.2c-0.1-0.1-0.2-0.1-0.4-0.2c-0.1,0-0.1-0.1-0.2-0.1c-0.1-0.1-0.2-0.1-0.3-0.2   c-0.1,0-0.1-0.1-0.2-0.1c-0.1-0.1-0.2-0.1-0.3-0.2c-0.1,0-0.1-0.1-0.2-0.1c-0.1-0.1-0.2-0.1-0.3-0.2c-0.1,0-0.1-0.1-0.1-0.1   c-0.1-0.1-0.2-0.1-0.3-0.2c-0.1,0-0.1-0.1-0.2-0.1c-0.1-0.1-0.1-0.1-0.2-0.2c-0.1,0-0.1-0.1-0.1-0.1c-0.1-0.1-0.1-0.1-0.2-0.2   c0,0-0.1-0.1-0.1-0.1c-0.1,0-0.1-0.1-0.2-0.1c0,0-0.1-0.1-0.1-0.1c0,0-0.1-0.1-0.1-0.1c0,0,0-0.1-0.1-0.1c0,0-0.1-0.1-0.1-0.1   c0,0,0-0.1-0.1-0.1c0,0-0.1-0.1-0.1-0.1c0,0,0,0,0-0.1c0,0-0.1-0.1-0.1-0.1c0,0,0,0,0,0c0,0,0-0.1-0.1-0.1v-39.4   c0.3,0.1,0.5,0.3,0.8,0.4c0,0,0,0,0,0c0,0,0,0,0,0c0,0,0.1,0,0.1,0c0,0,0,0,0,0c0.7,0.3,1.3,0.6,1.9,0.8c0,0,0,0,0.1,0c0,0,0,0,0,0   c0.7,0.3,1.4,0.5,2.1,0.8c0,0,0,0,0,0c0,0,0,0,0.1,0c0.4,0.2,0.8,0.3,1.2,0.4c0.3,0.1,0.7,0.2,1.1,0.4c0.1,0,0.1,0,0.2,0.1   c0,0,0,0,0.1,0c0,0,0,0,0,0c0,0,0,0,0,0c1.1,0.4,2.2,0.7,3,0.9c0.3,0.1,0.6,0.2,1,0.3l0.5,0.2c0,0,0,0,0,0c1.1,0.3,2.4,0.6,3.9,1   c0.6,0.1,1.1,0.3,1.7,0.4c0.8,0.2,1.6,0.4,2.5,0.5c1.4,0.3,3,0.6,4.5,0.9c0.9,0.2,1.8,0.3,2.7,0.4c0.4,0.1,0.7,0.1,1.1,0.2   c1.3,0.2,2.7,0.4,4.1,0.6c0.9,0.1,1.9,0.2,2.8,0.3c0.6,0.1,1.3,0.2,1.9,0.2c1.6,0.2,3,0.3,4.4,0.4c0.6,0.1,1.2,0.1,1.7,0.1   c1.3,0.1,2.7,0.2,4,0.3c0.3,0,0.7,0,1,0.1l0.8,0c0.1,0,0.1,0,0.2,0l0.9,0c2.7,0.1,5.1,0.2,7.3,0.2c0.5,0,1,0,1.5,0   c0.6,0,1.2,0,1.8,0c0.5,0,1,0,1.6,0c0.2,0,0.3,0,0.5,0c0.4,0,0.8,0,1.2,0c0.2,0,0.3,0,0.5,0c0.5,0,0.9,0,1.4,0c0.1,0,0.2,0,0.3,0   c0.6,0,1.1,0,1.7,0c0.2,0,0.3,0,0.5,0c0.4,0,0.8,0,1.3,0c0.2,0,0.4,0,0.6,0c0.5,0,0.9,0,1.4-0.1c0.1,0,0.3,0,0.4,0   c0.6,0,1.2-0.1,1.7-0.1c0.2,0,0.3,0,0.5,0c0.4,0,0.9-0.1,1.3-0.1c0.2,0,0.4,0,0.6,0c0.4,0,0.9-0.1,1.3-0.1c0.2,0,0.3,0,0.5,0   c0.6,0,1.2-0.1,1.8-0.1c0.2,0,0.3,0,0.5,0c0.4,0,0.9-0.1,1.3-0.1c0.2,0,0.5,0,0.7-0.1c0.4,0,0.8-0.1,1.3-0.1c0.2,0,0.4,0,0.6-0.1   c0.6-0.1,1.2-0.1,1.8-0.2c0.2,0,0.3,0,0.5-0.1c0.5-0.1,0.9-0.1,1.4-0.2c0.2,0,0.5-0.1,0.7-0.1c0.4-0.1,0.8-0.1,1.2-0.2   c0.2,0,0.4-0.1,0.7-0.1c0.6-0.1,1.2-0.2,1.8-0.2c0.1,0,0.2,0,0.3-0.1c0.5-0.1,1-0.1,1.5-0.2c0.2,0,0.5-0.1,0.7-0.1   c0.4-0.1,0.8-0.1,1.2-0.2c0.2,0,0.5-0.1,0.7-0.1c0.5-0.1,1-0.2,1.5-0.3c0.1,0,0.2,0,0.4-0.1c0.6-0.1,1.1-0.2,1.7-0.3   c0.2,0,0.4-0.1,0.6-0.1c0.4-0.1,0.8-0.2,1.2-0.2c0.2,0,0.4-0.1,0.7-0.1c0.5-0.1,0.9-0.2,1.4-0.3c0.1,0,0.3-0.1,0.4-0.1   c0.6-0.1,1.1-0.3,1.7-0.4c0.2,0,0.4-0.1,0.6-0.1c0.4-0.1,0.8-0.2,1.2-0.3c0.2-0.1,0.4-0.1,0.6-0.2c0.4-0.1,0.8-0.2,1.3-0.3   c0.1,0,0.3-0.1,0.4-0.1c0.5-0.2,1.1-0.3,1.6-0.5c0.2,0,0.3-0.1,0.5-0.1c0.4-0.1,0.8-0.2,1.2-0.4c0.2-0.1,0.4-0.1,0.6-0.2   c0.4-0.1,0.8-0.3,1.2-0.4c0.1-0.1,0.3-0.1,0.4-0.2c0.5-0.2,1-0.4,1.5-0.6c0.1,0,0.2-0.1,0.3-0.1c0.4-0.2,0.8-0.3,1.2-0.5   c0.2-0.1,0.3-0.1,0.5-0.2c0.4-0.1,0.7-0.3,1.1-0.4c0.1-0.1,0.3-0.1,0.4-0.2C475.4,345.9,475.8,345.7,476.3,345.4   C476.3,345.5,476.3,345.5,476.3,345.4z M476.3,441.2c-1.7,3.8-22,13.2-61.3,13.2c-39.3,0-59.6-9.3-61.3-13.2v-4.1v-35.4   c0.1,0,0.1,0.1,0.2,0.1c0.9,0.4,1.7,0.8,2.6,1.2c0.1,0.1,0.3,0.1,0.4,0.2c0.9,0.4,1.8,0.7,2.8,1.1c0.1,0,0.3,0.1,0.4,0.1   c1,0.3,1.9,0.7,2.9,1c0.1,0,0.2,0.1,0.4,0.1c1,0.3,2,0.6,3.1,0.9c0.1,0,0.2,0.1,0.3,0.1c1,0.3,2.1,0.6,3.2,0.8c0.1,0,0.2,0,0.3,0.1   c1.1,0.3,2.2,0.5,3.2,0.7c0.1,0,0.1,0,0.2,0c1.1,0.2,2.2,0.5,3.3,0.7c0,0,0.1,0,0.1,0c1.1,0.2,2.2,0.4,3.3,0.6   c10.5,1.7,22.5,2.7,34.6,2.7c0.5,0,1,0,1.6,0c0.2,0,0.3,0,0.5,0c0.4,0,0.8,0,1.2,0c0.2,0,0.3,0,0.5,0c0.5,0,0.9,0,1.4,0   c0.1,0,0.2,0,0.3,0c0.5,0,1.1,0,1.7,0c0.2,0,0.3,0,0.5,0c0.4,0,0.8,0,1.2,0c0.2,0,0.4,0,0.6,0c0.4,0,0.9,0,1.3-0.1   c0.1,0,0.3,0,0.4,0c0.6,0,1.2-0.1,1.7-0.1c0.2,0,0.4,0,0.5,0c0.4,0,0.9-0.1,1.3-0.1c0.2,0,0.4,0,0.6,0c0.4,0,0.9-0.1,1.3-0.1   c0.2,0,0.3,0,0.5,0c0.6,0,1.2-0.1,1.8-0.1c0.2,0,0.4,0,0.5,0c0.4,0,0.9-0.1,1.3-0.1c0.2,0,0.5,0,0.7-0.1c0.4,0,0.8-0.1,1.2-0.1   c0.2,0,0.4,0,0.6-0.1c0.6-0.1,1.2-0.1,1.8-0.2c0.2,0,0.3,0,0.5-0.1c0.5-0.1,0.9-0.1,1.4-0.2c0.2,0,0.5-0.1,0.7-0.1   c0.4-0.1,0.8-0.1,1.2-0.2c0.2,0,0.4-0.1,0.7-0.1c0.6-0.1,1.2-0.2,1.7-0.2c0.1,0,0.3,0,0.4-0.1c0.5-0.1,1-0.1,1.5-0.2   c0.2,0,0.5-0.1,0.7-0.1c0.4-0.1,0.8-0.1,1.2-0.2c0.2,0,0.5-0.1,0.7-0.1c0.5-0.1,1-0.2,1.5-0.3c0.1,0,0.3-0.1,0.4-0.1   c0.6-0.1,1.1-0.2,1.7-0.3c0.2,0,0.4-0.1,0.6-0.1c0.4-0.1,0.8-0.2,1.2-0.2c0.2,0,0.4-0.1,0.7-0.1c0.5-0.1,0.9-0.2,1.4-0.3   c0.1,0,0.3-0.1,0.4-0.1c0.6-0.1,1.1-0.3,1.7-0.4c0.2,0,0.4-0.1,0.6-0.1c0.4-0.1,0.8-0.2,1.2-0.3c0.2-0.1,0.4-0.1,0.6-0.2   c0.4-0.1,0.8-0.2,1.2-0.3c0.2,0,0.3-0.1,0.5-0.1c0.5-0.2,1.1-0.3,1.6-0.5c0.2,0,0.3-0.1,0.5-0.1c0.4-0.1,0.8-0.2,1.2-0.4   c0.2-0.1,0.4-0.1,0.6-0.2c0.4-0.1,0.8-0.3,1.2-0.4c0.1-0.1,0.3-0.1,0.4-0.2c0.5-0.2,1-0.4,1.5-0.6c0.1,0,0.2-0.1,0.3-0.1   c0.4-0.2,0.8-0.3,1.2-0.5c0.2-0.1,0.3-0.1,0.5-0.2c0.4-0.1,0.7-0.3,1.1-0.5c0.1-0.1,0.3-0.1,0.4-0.2c0.5-0.2,0.9-0.4,1.4-0.6   c0,0,0,0,0,0V441.2z M415,259.3c38.8,0,59,9.1,61.2,13c0,0,0,0.1-0.1,0.1c0,0.1-0.1,0.1-0.1,0.2c0,0.1-0.1,0.1-0.2,0.2   c-0.1,0.1-0.1,0.1-0.2,0.2c-0.1,0.1-0.1,0.1-0.2,0.2c-0.1,0.1-0.2,0.1-0.2,0.2c-0.1,0.1-0.2,0.1-0.3,0.2c-0.1,0.1-0.2,0.2-0.3,0.2   c-0.1,0.1-0.2,0.2-0.3,0.2c-0.1,0.1-0.2,0.2-0.4,0.2c-0.1,0.1-0.2,0.2-0.4,0.2c-0.1,0.1-0.3,0.2-0.4,0.3c-0.1,0.1-0.3,0.2-0.4,0.2   c-0.2,0.1-0.3,0.2-0.5,0.3c-0.2,0.1-0.3,0.2-0.5,0.3c-0.2,0.1-0.3,0.2-0.5,0.3c-0.2,0.1-0.3,0.2-0.5,0.3c-0.2,0.1-0.4,0.2-0.6,0.3   c-0.2,0.1-0.4,0.2-0.6,0.3c-0.2,0.1-0.4,0.2-0.6,0.3c-0.2,0.1-0.4,0.2-0.6,0.3c-0.2,0.1-0.5,0.2-0.7,0.3c-0.2,0.1-0.5,0.2-0.7,0.3   c-0.2,0.1-0.5,0.2-0.7,0.3c-0.2,0.1-0.5,0.2-0.7,0.3c-0.3,0.1-0.5,0.2-0.8,0.3c-0.3,0.1-0.5,0.2-0.8,0.3c-0.3,0.1-0.6,0.2-0.8,0.3   c-0.3,0.1-0.6,0.2-0.8,0.3c-0.3,0.1-0.6,0.2-0.9,0.3c-0.3,0.1-0.6,0.2-0.9,0.3c-0.3,0.1-0.6,0.2-1,0.3c-0.3,0.1-0.6,0.2-1,0.3   c-0.3,0.1-0.7,0.2-1,0.3c-0.3,0.1-0.7,0.2-1,0.3c-0.3,0.1-0.7,0.2-1,0.2c-0.4,0.1-0.7,0.2-1.1,0.2c-0.4,0.1-0.7,0.2-1.1,0.2   c-0.4,0.1-0.8,0.2-1.1,0.2c-0.4,0.1-0.8,0.2-1.2,0.2c-0.4,0.1-0.8,0.1-1.2,0.2c-0.4,0.1-0.8,0.1-1.2,0.2c-0.4,0.1-0.8,0.1-1.3,0.2   c-0.4,0.1-0.8,0.1-1.2,0.2c-0.4,0.1-0.9,0.1-1.4,0.2c-0.4,0.1-0.8,0.1-1.3,0.2c-0.5,0.1-0.9,0.1-1.4,0.2c-0.4,0.1-0.9,0.1-1.3,0.2   c-0.5,0.1-1,0.1-1.5,0.2c-0.5,0.1-0.9,0.1-1.4,0.2c-0.5,0.1-1,0.1-1.6,0.2c-0.5,0-0.9,0.1-1.4,0.1c-0.5,0.1-1.1,0.1-1.7,0.1   c-0.5,0-0.9,0.1-1.4,0.1c-0.6,0-1.2,0.1-1.8,0.1c-0.5,0-0.9,0.1-1.4,0.1c-0.6,0-1.2,0.1-1.8,0.1c-0.5,0-0.9,0.1-1.4,0.1   c-0.6,0-1.3,0.1-2,0.1c-0.5,0-0.9,0-1.4,0.1c-0.8,0-1.5,0-2.3,0.1c-0.4,0-0.8,0-1.2,0c-1.2,0-2.4,0-3.6,0s-2.4,0-3.6,0   c-0.4,0-0.8,0-1.2,0c-0.8,0-1.6,0-2.3-0.1c-0.5,0-0.9,0-1.4-0.1c-0.7,0-1.3,0-2-0.1c-0.5,0-1-0.1-1.5-0.1c-0.6,0-1.2-0.1-1.8-0.1   c-0.5,0-1-0.1-1.4-0.1c-0.6,0-1.2-0.1-1.7-0.1c-0.5,0-0.9-0.1-1.4-0.1c-0.6,0-1.1-0.1-1.7-0.1c-0.5,0-0.9-0.1-1.4-0.1   c-0.5-0.1-1.1-0.1-1.6-0.2c-0.5,0-0.9-0.1-1.3-0.2c-0.5-0.1-1-0.1-1.5-0.2c-0.4-0.1-0.9-0.1-1.3-0.2c-0.5-0.1-1-0.1-1.4-0.2   c-0.4-0.1-0.8-0.1-1.2-0.2c-0.5-0.1-0.9-0.1-1.4-0.2c-0.4-0.1-0.8-0.1-1.2-0.2c-0.4-0.1-0.9-0.1-1.3-0.2c-0.4-0.1-0.8-0.1-1.1-0.2   c-0.4-0.1-0.8-0.2-1.3-0.2c-0.4-0.1-0.7-0.1-1.1-0.2c-0.4-0.1-0.8-0.2-1.2-0.2c-0.4-0.1-0.7-0.2-1.1-0.2c-0.4-0.1-0.8-0.2-1.1-0.3   c-0.3-0.1-0.7-0.2-1-0.2c-0.4-0.1-0.7-0.2-1.1-0.3c-0.3-0.1-0.6-0.2-1-0.2c-0.3-0.1-0.7-0.2-1-0.3c-0.3-0.1-0.6-0.2-0.9-0.3   c-0.3-0.1-0.6-0.2-1-0.3c-0.3-0.1-0.6-0.2-0.9-0.3c-0.3-0.1-0.6-0.2-0.9-0.3c-0.3-0.1-0.5-0.2-0.8-0.3c-0.3-0.1-0.6-0.2-0.8-0.3   c-0.3-0.1-0.5-0.2-0.8-0.3c-0.3-0.1-0.5-0.2-0.8-0.3c-0.2-0.1-0.5-0.2-0.7-0.3c-0.2-0.1-0.5-0.2-0.7-0.3c-0.2-0.1-0.4-0.2-0.6-0.3   c-0.2-0.1-0.5-0.2-0.7-0.3c-0.2-0.1-0.4-0.2-0.6-0.3c-0.2-0.1-0.4-0.2-0.6-0.3c-0.2-0.1-0.4-0.2-0.5-0.3c-0.2-0.1-0.4-0.2-0.6-0.3   c-0.2-0.1-0.3-0.2-0.5-0.3c-0.2-0.1-0.3-0.2-0.5-0.3c-0.2-0.1-0.3-0.2-0.4-0.2c-0.2-0.1-0.3-0.2-0.4-0.3c-0.1-0.1-0.3-0.2-0.4-0.2   c-0.1-0.1-0.3-0.2-0.4-0.3c-0.1-0.1-0.2-0.2-0.3-0.2c-0.1-0.1-0.2-0.2-0.3-0.2c-0.1-0.1-0.2-0.1-0.3-0.2c-0.1-0.1-0.2-0.2-0.3-0.2   c-0.1-0.1-0.2-0.1-0.2-0.2c-0.1-0.1-0.2-0.2-0.2-0.2c-0.1-0.1-0.1-0.1-0.2-0.2c-0.1-0.1-0.1-0.1-0.2-0.2c0-0.1-0.1-0.1-0.1-0.2   c0,0,0-0.1-0.1-0.1C356,268.4,376.2,259.3,415,259.3z M125.6,58c0-0.1,0.1-0.3,0.2-0.4c0,0,0,0,0.1,0h170.9c0.1,0,0.2,0,0.2,0   c0,0,0.1,0.2,0.1,0.3c-37,15.1-53.5,46.7-58.7,58.9h-53.7C180.5,106.1,166.9,82,125.6,58z M145.9,136.8c3.9-3.9,9-6,14.5-6h19.2   h63.6h19.2c11.3,0,20.5,9.2,20.5,20.4c0,5.5-2.1,10.6-6,14.4c-3.9,3.9-9,6-14.5,6H262H160.7h-0.4c-11.3,0-20.5-9.2-20.5-20.4   C139.9,145.8,142.1,140.7,145.9,136.8z M38.9,413.5l30.2-25.4c1.4-1.2,2.3-2.9,2.5-4.7c2.7-28.3,9-70.1,23.6-109.2   c16.2-43.5,38.9-73.3,67.3-88.6h97.8c45.7,24.6,68.4,83,79.4,128.3v14.6V385v45.1H42.5c-3.9,0-5.6-3.6-6.2-5.1   C35.1,421.4,35.4,416.5,38.9,413.5z"/>

<path class="st0" d="M177,351.2c8.8,6.2,18.7,10.1,29.5,11.2v8.9c0,3.4,2.9,6.2,6.3,6.2c3.5,0,6.2-2.7,6.2-6.2v-8.6   c18.3-1.7,30.7-12.2,30.7-28.1c0-4.7-0.9-8.9-2.8-12.4c-4.2-8.1-13.3-13.4-28.5-17.2v-27.6c4.9,1.1,9.8,3.3,14.8,6.3   c1.4,0.9,2.9,1.3,4.3,1.3c4.5,0,8.1-3.5,8.1-7.9c0-3.4-2-5.6-4.3-6.9c-6.6-4.2-13.8-6.9-22.3-7.9V259c0-3.4-2.7-6.2-6.2-6.2   c-3.4,0-6.3,2.7-6.3,6.2v3c-5.7,0.5-10.8,1.8-15.1,4c-5.4,2.7-9.5,6.5-12.1,11.3c-2,3.6-3,7.7-3,12.2c0,6.6,1.6,11.8,4.9,16.1   c4.9,6.2,13.4,10.3,25.9,13.6v28.4c-7.9-1.4-14.5-4.7-21.3-9.6c-1.3-1-3-1.6-4.7-1.6c-4.5,0-7.9,3.4-7.9,7.9   C173.1,347.3,174.5,349.6,177,351.2z M218.4,321.9c0.2,0.1,0.5,0.1,0.7,0.2c10.5,3.4,13.6,7.3,13.6,13.5c0,6.9-5,11.5-14.2,12.5   V321.9z M201.3,299.7C201.3,299.7,201.3,299.7,201.3,299.7c-6.3-3-8.1-6.4-8.1-11.2c0-6.3,4.6-11.2,13.8-12.1v25.5   C204.8,301.2,202.9,300.5,201.3,299.7z"/>

</g>

</svg>