<!-- icon666.com - MILLIONS vector ICONS FREE --><svg viewBox="0 0 48 60" xmlns="http://www.w3.org/2000/svg"><g id="Page-1" fill-rule="evenodd"><g id="005---heart-lock" fill="rgb(0,0,0)" fill-rule="nonzero"><path id="Shape" d="m23.688 59.95c.1007248.032965.2060182.0498389.312.05.1063027-.0002384.2119134-.0171091.313-.05 17.487-5.75 23.687-18.845 23.687-28.314 0-6.771-3.28-12.393-8-14.61v-3.026c-.0082673-7.72855947-6.2714405-13.99173268-14-14h-4c-7.7285595.00826732-13.99173268 6.27144053-14 14v3.026c-4.719 2.217-8 7.839-8 14.61 0 9.469 6.2 22.564 23.688 28.314zm-13.688-45.95c.0071648-6.62444695 5.375553-11.99283515 12-12h4c6.624447.00716485 11.9928352 5.37555305 12 12v2.3c-.8182829-.1999178-1.6576499-.3006418-2.5-.3-.517 0-1.013.032-1.5.077v-2.077c-.0049599-4.41622192-3.5837781-7.99504012-8-8h-4c-4.4162219.00495988-7.9950401 3.58377808-8 8v2.077c-.487-.045-.983-.077-1.5-.077-.8423501-.0006418-1.6817171.1000822-2.5.3zm22 2.388c-3.0220994.6899103-5.7922912 2.2079754-8 4.384-2.2077088-2.1760246-4.9779006-3.6940897-8-4.384v-2.388c.0033074-3.3123376 2.6876624-5.99669262 6-6h4c3.3123376.00330738 5.9966926 2.6876624 6 6zm-19.5 1.612c4.0970969.0465259 7.9857498 1.8139304 10.715 4.87.1897197.2394594.4784933.3790579.784.379.3049864-.0000053.5932984-.1391904.783-.378 2.729923-3.057003 6.6197548-4.8248114 10.718-4.871 5.888 0 10.5 5.99 10.5 13.636 0 8.746-5.77 20.846-22 26.31-16.23-5.465-22-17.564-22-26.31 0-7.646 4.612-13.636 10.5-13.636z" fill="rgb(0,0,0)"></path><path id="Shape" d="m13.5 21c0-.5522847-.4477153-1-1-1-5.321 0-8.5 5.917-8.5 11.636 0 .5522847.44771525 1 1 1s1-.4477153 1-1c0-4.736 2.431-9.636 6.5-9.636.5522847 0 1-.4477153 1-1z" fill="rgb(0,0,0)" ></path><path id="Shape" d="m35.5 22c4.069 0 6.5 4.9 6.5 9.636 0 .5522847.4477153 1 1 1s1-.4477153 1-1c0-5.719-3.179-11.636-8.5-11.636-.5522847 0-1 .4477153-1 1s.4477153 1 1 1z" fill="rgb(0,0,0)" ></path><path id="Shape" d="m20.767 37.806-.619 4.946c-.071142.5692977.1056279 1.1417331.4853754 1.5717947.3797474.4300615.925899.6763302 1.4996246.6762053h3.734c.5737256.0001249 1.1198772-.2461438 1.4996246-.6762053.3797475-.4300616.5565174-1.002497.4853754-1.5717947l-.619-4.946c1.5999761-1.3561942 2.1834578-3.566819 1.4611842-5.5359576s-2.5967605-3.2781886-4.6941842-3.2781886-3.9719106 1.30905-4.6941842 3.2781886-.1387919 4.1797634 1.4611842 5.5359576zm3.233-6.806c1.3298305-.0021867 2.5018451.872764 2.8777678 2.1483565s-.134286 2.6463018-1.2527678 3.3656435c-.3219012.208781-.4959657.5833307-.448.964l.69 5.522h-3.734l.69-5.522c.0479657-.3806693-.1260988-.755219-.448-.964-1.1184818-.7193417-1.6286905-2.090051-1.2527678-3.3656435s1.5479373-2.1505432 2.8777678-2.1483565z" fill="rgb(0,0,0)"></path></g></g></svg>