<svg width="32" height="32" viewBox="0 0 32 32" fill="none" xmlns="http://www.w3.org/2000/svg">
<g clip-path="url(#clip0_508_144)">
<path d="M7 10C6.0111 10 5.0444 9.70676 4.22215 9.15735C3.39991 8.60794 2.75904 7.82705 2.3806 6.91342C2.00217 5.99979 1.90315 4.99446 2.09608 4.02455C2.289 3.05465 2.76521 2.16373 3.46447 1.46447C4.16373 0.765206 5.05465 0.289002 6.02455 0.0960758C6.99446 -0.0968502 7.99979 0.00216642 8.91342 0.380605C9.82705 0.759043 10.6079 1.39991 11.1573 2.22215C11.7068 3.0444 12 4.0111 12 5C11.9984 6.3256 11.4711 7.59644 10.5338 8.53378C9.59644 9.47112 8.3256 9.99841 7 10ZM7 2C6.40666 2 5.82664 2.17595 5.33329 2.50559C4.83994 2.83524 4.45543 3.30377 4.22836 3.85195C4.0013 4.40013 3.94189 5.00333 4.05765 5.58527C4.1734 6.16722 4.45912 6.70176 4.87868 7.12132C5.29824 7.54088 5.83279 7.8266 6.41473 7.94236C6.99667 8.05811 7.59987 7.9987 8.14805 7.77164C8.69623 7.54458 9.16477 7.16006 9.49441 6.66671C9.82405 6.17337 10 5.59335 10 5C10 4.20435 9.68393 3.44129 9.12132 2.87868C8.55871 2.31607 7.79565 2 7 2Z" fill="#85009E"/>
<path d="M4.00003 16.0001H2.00003C1.7695 16.0002 1.54603 15.9205 1.36745 15.7748C1.18886 15.629 1.06613 15.426 1.02003 15.2001L0.0200285 10.2001C-0.0240844 9.98437 0.00424406 9.7601 0.100618 9.56211C0.196992 9.36412 0.356021 9.20348 0.553028 9.10511L4.15303 7.30511C4.39106 7.18655 4.66644 7.16742 4.91858 7.2519C5.17072 7.33639 5.37898 7.51757 5.49753 7.75561C5.61608 7.99364 5.63522 8.26901 5.55073 8.52116C5.46625 8.7733 5.28506 8.98155 5.04703 9.10011L2.13003 10.5531L2.82003 14.0001H4.00003C4.26524 14.0001 4.5196 14.1055 4.70714 14.293C4.89467 14.4805 5.00003 14.7349 5.00003 15.0001C5.00003 15.2653 4.89467 15.5197 4.70714 15.7072C4.5196 15.8947 4.26524 16.0001 4.00003 16.0001Z" fill="#85009E"/>
<path d="M12 15.9999H8C7.73478 15.9999 7.48043 15.8945 7.29289 15.707C7.10536 15.5195 7 15.2651 7 14.9999C7 14.7347 7.10536 14.4803 7.29289 14.2928C7.48043 14.1052 7.73478 13.9999 8 13.9999H11.18L11.87 10.5529L8.953 9.09989C8.83449 9.04182 8.72864 8.96086 8.64156 8.86168C8.55449 8.7625 8.48791 8.64707 8.44566 8.52204C8.40341 8.39701 8.38632 8.26485 8.39539 8.13318C8.40446 8.00152 8.4395 7.87295 8.4985 7.75489C8.5575 7.63683 8.63928 7.53162 8.73913 7.44532C8.83898 7.35902 8.95493 7.29334 9.08029 7.25207C9.20564 7.21079 9.33793 7.19474 9.46952 7.20483C9.60111 7.21493 9.72941 7.25097 9.847 7.31089L13.447 9.11089C13.6428 9.20898 13.8011 9.36866 13.8974 9.5654C13.9937 9.76214 14.0227 9.98505 13.98 10.1999L12.98 15.1999C12.9339 15.4258 12.8112 15.6288 12.6326 15.7746C12.454 15.9203 12.2305 15.9999 12 15.9999Z" fill="#85009E"/>
<path d="M25 26C24.0111 26 23.0444 25.7068 22.2222 25.1574C21.3999 24.6079 20.759 23.8271 20.3806 22.9134C20.0022 21.9998 19.9031 20.9945 20.0961 20.0246C20.289 19.0546 20.7652 18.1637 21.4645 17.4645C22.1637 16.7652 23.0546 16.289 24.0246 16.0961C24.9945 15.9031 25.9998 16.0022 26.9134 16.3806C27.8271 16.759 28.6079 17.3999 29.1574 18.2222C29.7068 19.0444 30 20.0111 30 21C29.9984 22.3256 29.4711 23.5964 28.5338 24.5338C27.5964 25.4711 26.3256 25.9984 25 26ZM25 18C24.4067 18 23.8266 18.1759 23.3333 18.5056C22.8399 18.8352 22.4554 19.3038 22.2284 19.852C22.0013 20.4001 21.9419 21.0033 22.0576 21.5853C22.1734 22.1672 22.4591 22.7018 22.8787 23.1213C23.2982 23.5409 23.8328 23.8266 24.4147 23.9424C24.9967 24.0581 25.5999 23.9987 26.1481 23.7716C26.6962 23.5446 27.1648 23.1601 27.4944 22.6667C27.8241 22.1734 28 21.5933 28 21C28 20.2044 27.6839 19.4413 27.1213 18.8787C26.5587 18.3161 25.7957 18 25 18Z" fill="#85009E"/>
<path d="M22 31.9999H20C19.7695 32 19.546 31.9204 19.3674 31.7746C19.1889 31.6288 19.0661 31.4258 19.02 31.1999L18.02 26.1999C17.9769 25.9848 18.0057 25.7614 18.102 25.5643C18.1983 25.3671 18.3568 25.2071 18.553 25.1089L22.153 23.3089C22.2706 23.249 22.3989 23.213 22.5305 23.2029C22.6621 23.1928 22.7944 23.2088 22.9197 23.2501C23.0451 23.2914 23.161 23.3571 23.2609 23.4434C23.3607 23.5297 23.4425 23.6349 23.5015 23.7529C23.5605 23.871 23.5956 23.9996 23.6046 24.1312C23.6137 24.2629 23.5966 24.3951 23.5544 24.5201C23.5121 24.6451 23.4455 24.7606 23.3585 24.8597C23.2714 24.9589 23.1655 25.0399 23.047 25.0979L20.13 26.5529L20.82 29.9999H22C22.2652 29.9999 22.5196 30.1053 22.7071 30.2928C22.8947 30.4804 23 30.7347 23 30.9999C23 31.2652 22.8947 31.5195 22.7071 31.707C22.5196 31.8946 22.2652 31.9999 22 31.9999Z" fill="#85009E"/>
<path d="M30 31.9999H26C25.7348 31.9999 25.4804 31.8945 25.2929 31.707C25.1054 31.5195 25 31.2651 25 30.9999C25 30.7347 25.1054 30.4803 25.2929 30.2928C25.4804 30.1052 25.7348 29.9999 26 29.9999H29.18L29.87 26.5529L26.953 25.0999C26.8345 25.0418 26.7286 24.9609 26.6416 24.8617C26.5545 24.7625 26.4879 24.6471 26.4457 24.522C26.4034 24.397 26.3863 24.2648 26.3954 24.1332C26.4045 24.0015 26.4395 23.8729 26.4985 23.7549C26.5575 23.6368 26.6393 23.5316 26.7391 23.4453C26.839 23.359 26.9549 23.2933 27.0803 23.2521C27.2056 23.2108 27.3379 23.1947 27.4695 23.2048C27.6011 23.2149 27.7294 23.251 27.847 23.3109L31.447 25.1109C31.6428 25.209 31.8011 25.3687 31.8974 25.5654C31.9937 25.7621 32.0227 25.985 31.98 26.1999L30.98 31.1999C30.9339 31.4258 30.8112 31.6288 30.6326 31.7745C30.454 31.9203 30.2305 31.9999 30 31.9999Z" fill="#85009E"/>
<path d="M25 14C24.7348 14 24.4804 13.8946 24.2929 13.7071C24.1054 13.5196 24 13.2652 24 13V11C23.9984 9.67441 23.4711 8.40356 22.5338 7.46622C21.5964 6.52888 20.3256 6.00159 19 6H17C16.7348 6 16.4804 5.89464 16.2929 5.70711C16.1054 5.51957 16 5.26522 16 5C16 4.73478 16.1054 4.48043 16.2929 4.29289C16.4804 4.10536 16.7348 4 17 4H19C20.8559 4.00212 22.6351 4.7403 23.9474 6.05259C25.2597 7.36489 25.9979 9.14413 26 11V13C26 13.2652 25.8946 13.5196 25.7071 13.7071C25.5196 13.8946 25.2652 14 25 14Z" fill="#6282AC"/>
<path d="M17 8.00008C16.7348 8.00002 16.4805 7.89463 16.293 7.70708L14.293 5.70708C14.1056 5.51955 14.0002 5.26525 14.0002 5.00008C14.0002 4.73492 14.1056 4.48061 14.293 4.29308L16.293 2.29308C16.3853 2.19757 16.4956 2.12139 16.6176 2.06898C16.7396 2.01657 16.8709 1.98898 17.0036 1.98783C17.1364 1.98668 17.2681 2.01198 17.391 2.06226C17.5139 2.11254 17.6255 2.18679 17.7194 2.28069C17.8133 2.37458 17.8876 2.48623 17.9379 2.60913C17.9881 2.73202 18.0134 2.8637 18.0123 2.99648C18.0111 3.12926 17.9835 3.26048 17.9311 3.38249C17.8787 3.50449 17.8025 3.61483 17.707 3.70708L16.414 5.00008L17.707 6.29308C17.8468 6.43293 17.942 6.6111 17.9806 6.80505C18.0192 6.999 17.9994 7.20004 17.9237 7.38274C17.848 7.56544 17.7199 7.7216 17.5555 7.83148C17.3911 7.94137 17.1978 8.00004 17 8.00008Z" fill="#6282AC"/>
<path d="M13 28H11C9.67441 27.9984 8.40356 27.4711 7.46622 26.5338C6.52888 25.5964 6.00159 24.3256 6 23V19C6 18.7348 6.10536 18.4804 6.29289 18.2929C6.48043 18.1054 6.73478 18 7 18C7.26522 18 7.51957 18.1054 7.70711 18.2929C7.89464 18.4804 8 18.7348 8 19V23C8 23.7956 8.31607 24.5587 8.87868 25.1213C9.44129 25.6839 10.2044 26 11 26H13C13.2652 26 13.5196 26.1054 13.7071 26.2929C13.8946 26.4804 14 26.7348 14 27C14 27.2652 13.8946 27.5196 13.7071 27.7071C13.5196 27.8946 13.2652 28 13 28Z" fill="#6282AC"/>
<path d="M13 29.9999C12.8023 29.9999 12.609 29.9412 12.4446 29.8313C12.2802 29.7214 12.152 29.5653 12.0764 29.3826C12.0007 29.1999 11.9809 28.9988 12.0194 28.8049C12.058 28.6109 12.1532 28.4328 12.293 28.2929L13.586 26.9999L12.293 25.7069C12.1109 25.5183 12.0101 25.2657 12.0124 25.0035C12.0146 24.7413 12.1198 24.4905 12.3052 24.3051C12.4906 24.1197 12.7414 24.0145 13.0036 24.0122C13.2658 24.01 13.5184 24.1108 13.707 24.2929L15.707 26.2929C15.8945 26.4804 15.9998 26.7348 15.9998 26.9999C15.9998 27.2651 15.8945 27.5194 15.707 27.7069L13.707 29.7069C13.5195 29.8945 13.2652 29.9999 13 29.9999Z" fill="#6282AC"/>
</g>
<defs>
<clipPath id="clip0_508_144">
<rect width="32" height="32" fill="white"/>
</clipPath>
</defs>
</svg>
