<svg xmlns="http://www.w3.org/2000/svg" viewBox="0 0 64 80" x="0px" y="0px"><g><path d="M49,43V33a9.01,9.01,0,0,0-9-9H24a9.01,9.01,0,0,0-9,9V46h2V33a7.008,7.008,0,0,1,7-7h1.586l5.707,5.707a1,1,0,0,0,1.414,0L38.414,26H40a7.008,7.008,0,0,1,7,7V43ZM32,29.586,28.414,26h7.172Z"/><rect x="22" y="35" width="2" height="9"/><rect x="40" y="35" width="2" height="7"/><path d="M61,46H48.247a15.392,15.392,0,0,0-7.182-1.89c-.076-.007-.155-.01-.225-.01a15.484,15.484,0,0,0-7.409,1.888L26,46a4,4,0,0,0-4,4,1.655,1.655,0,0,0,.014.237,3.932,3.932,0,0,0,.13.811l-5.637-2.583-.091-.045-3.367-1.538A4.266,4.266,0,0,0,7,50.76v.22a4.23,4.23,0,0,0,2.362,3.814l12.93,6.475A7.082,7.082,0,0,0,25.42,62H61a1,1,0,0,0,1-1V47A1,1,0,0,0,61,46ZM47,60H25.42a5.093,5.093,0,0,1-2.242-.524L10.254,53A2.243,2.243,0,0,1,9,50.98v-.22a2.267,2.267,0,0,1,3.214-2.06l3.339,1.525.09.044,7.939,3.64A1,1,0,0,0,24,54H35V52H26a1.99,1.99,0,0,1-1.991-1.909.844.844,0,0,0-.009-.1A2,2,0,0,1,26,48h7.67a1,1,0,0,0,.489-.128l.24-.135a13.569,13.569,0,0,1,6.409-1.646,1.025,1.025,0,0,0,.184.019A13.371,13.371,0,0,1,47,47.6Zm13,0H49V48H60Z"/><rect x="51" y="56" width="2" height="2"/><path d="M32,22a8.009,8.009,0,0,0,8-8V10a8,8,0,0,0-16,0v4A8.009,8.009,0,0,0,32,22ZM26,10a6,6,0,0,1,12,0v4a6,6,0,0,1-12,0Z"/><path d="M30,10a2.006,2.006,0,0,1,1.334-1.886l-.668-1.885A4.008,4.008,0,0,0,28,10v1h2Z"/></g></svg>