<!-- icon666.com - MILLIONS vector ICONS FREE --><svg clip-rule="evenodd" fill-rule="evenodd" image-rendering="optimizeQuality" shape-rendering="geometricPrecision" text-rendering="geometricPrecision" viewBox="0 0 18062 18062" xmlns="http://www.w3.org/2000/svg"><g id="Layer_x0020_1"><g fill="#ffa721"><path d="m12807 13552c-15 0-31-1-47-4-167-25-282-182-256-349l662-4328c25-167 181-282 349-257 168 26 282 183 257 350l-662 4327c-24 152-154 261-303 261z" fill="#ffa721"></path><path d="m5255 13552c-149 0-279-109-302-261l-663-4327c-25-168 90-324 257-350 168-25 324 90 350 257l662 4328c25 167-90 324-257 349-16 3-31 4-47 4z" fill="#ffa721"></path><path d="m16090 17800h-14117c-170 0-307-137-307-306l-90-2020h14910l-90 2020c0 169-137 306-306 306z" fill="#ffa721"></path></g><path d="m1576 15474-1560-5992c-33-127 18-261 128-333 109-73 253-67 357 13l4631 3599 3618-8310c49-112 159-185 281-185s233 73 281 185l3618 8310 4632-3599c103-80 247-86 356-13 110 72 162 206 129 333l-1561 5992z" fill="#ff3131" style="fill: rgb(189, 54, 217);"></path><path d="m4409 9238c-842 0-1527-685-1527-1527s685-1527 1527-1527 1527 685 1527 1527-685 1527-1527 1527z" fill="#ffa721"></path><path d="m13653 9238c-842 0-1527-685-1527-1527s685-1527 1527-1527 1527 685 1527 1527-685 1527-1527 1527z" fill="#ffa721"></path><path d="m9031 14507c-78 0-157-30-217-90-859-859-1747-1747-1747-2703 0-626 509-1136 1135-1136 390 0 643 149 829 362 186-213 440-362 829-362 626 0 1136 510 1136 1136 0 956-889 1844-1748 2703-60 60-138 90-217 90z" fill="#fff"></path><path d="m1998 4230c-118 0-225-67-276-173l-499-1036-1035-499c-106-51-174-158-174-276s68-225 174-276l1035-499 499-1035c51-106 158-174 276-174s225 67 276 174l499 1035 1036 499c106 51 173 158 173 276s-67 225-173 276l-1036 499-499 1036c-51 106-158 173-276 173z" fill="#ffa721"></path><path d="m15419 5206c-118 0-225-67-276-174l-657-1365-1365-657c-106-51-174-158-174-276s68-225 174-276l1365-657 657-1365c51-107 158-174 276-174s225 67 276 174l658 1365 1365 657c106 51 173 158 173 276s-67 225-173 276l-1365 657-658 1365c-51 107-158 174-276 174z" fill="#ffa721"></path><path d="m6402 5786c-118 0-225-67-276-173l-499-1036-1035-499c-107-51-174-158-174-276s67-225 174-276l1035-499 499-1036c51-106 158-173 276-173s225 67 276 173l499 1036 1036 499c106 51 173 158 173 276s-67 225-173 276l-1036 499-499 1036c-51 106-158 173-276 173z" fill="#ffa721"></path></g></svg>