<svg width="50" height="50" viewBox="0 0 50 50" fill="none" xmlns="http://www.w3.org/2000/svg">
<g clip-path="url(#clip0_506_14)">
<path d="M35.7397 10.7412C33.9975 10.7412 32.3321 11.0708 30.7876 11.6466V14.4742C32.204 13.7996 33.7553 13.3739 35.4181 13.3276V14.4586H35.6857L33.9605 17.9113H35.1308V25.0036C35.1308 25.0606 35.1775 25.099 35.1934 25.1516C35.2049 25.203 35.1834 25.257 35.2133 25.3054L37.5437 29.3409L36.5315 29.926L39.8524 32.1181L39.6135 28.1468L38.6013 28.7317L36.3524 24.8388V17.9113H37.5224L35.7972 14.4586H36.0562L36.0619 13.3276C37.9521 13.3795 39.7187 13.9027 41.2858 14.7573L40.7337 15.7104L41.2917 16.0293L41.8483 15.0605C43.4099 16.022 44.7166 17.3281 45.6788 18.891L44.7122 19.4516L45.0324 20.0026L45.982 19.4516C46.8362 21.0218 47.3587 22.7854 47.4155 24.6758H46.2838V25.3164H47.4155C47.3587 27.2108 46.8362 28.976 45.982 30.546L45.0324 29.9938L44.7152 30.549L45.6802 31.1084C44.7152 32.67 43.4071 33.9767 41.8471 34.9389L41.2891 33.9739L40.7367 34.29L41.2863 35.2438C39.7163 36.0977 37.9556 36.623 36.0623 36.6728V35.5439H35.4218V36.6728C33.7592 36.6288 32.2033 36.2029 30.7885 35.5254V38.3552C32.3328 38.9303 33.9982 39.2606 35.7407 39.2606C43.6025 39.2606 50.0009 32.8635 50.0009 24.9975C50 17.1375 43.6015 10.7412 35.7397 10.7412Z" fill="#85009E"/>
<path d="M25.212 7.96484H3.40786C1.52743 7.96484 0 9.49088 0 11.3713V38.6288C0 40.5092 1.52743 42.035 3.40786 42.035H25.212C27.0939 42.035 28.6196 40.5092 28.6196 38.6288V11.3713C28.6196 9.49228 27.0939 7.96484 25.212 7.96484ZM26.4335 38.63C26.4335 39.3034 25.8855 39.85 25.212 39.85H3.40786C2.73461 39.85 2.18642 39.3034 2.18642 38.63V11.3727C2.18642 10.6995 2.73438 10.1527 3.40786 10.1527H25.212C25.8853 10.1527 26.4335 10.6992 26.4335 11.3727V38.63Z" fill="#85009E"/>
<path d="M23.4001 17.2793H5.2198C4.87382 17.2793 4.59424 17.5563 4.59424 17.9042C4.59424 18.2529 4.87242 18.5311 5.2198 18.5311H23.4001C23.7475 18.5311 24.0257 18.2529 24.0257 17.9042C24.0257 17.5561 23.7473 17.2793 23.4001 17.2793Z" fill="#85009E"/>
<path d="M23.4001 20.1331H5.2198C4.87382 20.1331 4.59424 20.4112 4.59424 20.7579C4.59424 21.1039 4.87242 21.3837 5.2198 21.3837H23.4001C23.7475 21.3837 24.0257 21.1055 24.0257 20.7579C24.0257 20.4115 23.7473 20.1331 23.4001 20.1331Z" fill="#85009E"/>
<path d="M23.4001 22.9844H5.2198C4.87382 22.9844 4.59424 23.2642 4.59424 23.6109C4.59424 23.958 4.87242 24.2364 5.2198 24.2364H23.4001C23.7475 24.2364 24.0257 23.9582 24.0257 23.6109C24.0257 23.2642 23.7473 22.9844 23.4001 22.9844Z" fill="#85009E"/>
<path d="M16.216 25.8376H5.2198C4.87382 25.8376 4.59424 26.1179 4.59424 26.4641C4.59424 26.8113 4.87242 27.0904 5.2198 27.0904H16.2146C16.561 27.0904 16.8394 26.8141 16.8394 26.4641C16.8408 26.1179 16.561 25.8376 16.216 25.8376Z" fill="#85009E"/>
<path d="M14.0602 31.4731H5.2198C4.87382 31.4731 4.59424 31.7506 4.59424 32.098C4.59424 32.4451 4.87242 32.7243 5.2198 32.7243H14.0602C14.4066 32.7243 14.685 32.4466 14.685 32.098C14.685 31.7506 14.4066 31.4731 14.0602 31.4731Z" fill="#85009E"/>
</g>
<defs>
<clipPath id="clip0_506_14">
<rect width="50" height="50" fill="white"/>
</clipPath>
</defs>
</svg>
