<svg width="38" height="38" viewBox="0 0 38 38" fill="none" xmlns="http://www.w3.org/2000/svg">
<g clip-path="url(#clip0_508_158)">
<path d="M19 30.2417C17.5453 30.2417 16.3344 29.1272 16.2119 27.6775L14.3206 5.08897C14.2105 3.7789 14.6547 2.48381 15.5439 1.51653C16.4321 0.55049 17.6863 -5.25386e-07 19 -4.10537e-07C20.3138 -2.95688e-07 21.568 0.55049 22.4563 1.51653C23.3457 2.48381 23.7896 3.7789 23.6795 5.08897L21.7882 27.6775C21.6657 29.1272 20.4548 30.2417 19 30.2417Z" fill="#85009E"/>
<path d="M19 31.9043C20.6836 31.9043 22.048 33.2686 22.048 34.9523C22.048 36.6358 20.6836 38.0001 19 38.0001C17.3164 38.0001 15.952 36.6358 15.952 34.9523C15.952 33.2686 17.3164 31.9043 19 31.9043Z" fill="#85009E"/>
</g>
<defs>
<clipPath id="clip0_508_158">
<rect width="38" height="38" fill="white" transform="matrix(-1 -8.74228e-08 -8.74228e-08 1 38 0)"/>
</clipPath>
</defs>
</svg>
