<svg width="43" height="43" viewBox="0 0 43 43" fill="none" xmlns="http://www.w3.org/2000/svg">
<path d="M26.875 37.625V38.9688C26.875 40.4536 25.6723 41.6562 24.1875 41.6562C22.7027 41.6562 21.5 40.4536 21.5 38.9688V37.625H26.875ZM38.9688 34.9375C38.9688 35.6766 38.3641 36.2812 37.625 36.2812H5.375C4.63594 36.2812 4.03125 35.6766 4.03125 34.9375C4.03125 34.1984 4.63594 33.5938 5.375 33.5938C8.0625 29.5625 8.0625 18.8125 8.0625 18.8125C8.0625 12.1408 12.9296 6.62066 19.303 5.56984C18.9966 5.13313 18.8125 4.60369 18.8125 4.03125C18.8125 2.54909 20.0178 1.34375 21.5 1.34375C22.9822 1.34375 24.1875 2.54909 24.1875 4.03125C24.1875 4.60369 24.0034 5.13313 23.697 5.56984C30.0704 6.62066 34.9375 12.1408 34.9375 18.8125C34.9375 18.8125 34.9375 29.5625 37.625 33.5938C38.3641 33.5938 38.9688 34.1984 38.9688 34.9375ZM22.8438 4.03125C22.8438 3.2895 22.2418 2.6875 21.5 2.6875C20.7582 2.6875 20.1562 3.2895 20.1562 4.03125C20.1562 4.773 20.7582 5.375 21.5 5.375C22.2418 5.375 22.8438 4.773 22.8438 4.03125Z" fill="#85009E"/>
</svg>
