<svg id="gradient" viewBox="0 0 64 64" xmlns="http://www.w3.org/2000/svg" xmlns:xlink="http://www.w3.org/1999/xlink"><linearGradient id="lg1"><stop offset="0" stop-color="#620774"></stop><stop offset=".5" stop-color="#e61e71"></stop><stop offset="1" stop-color="#005be9"></stop></linearGradient><linearGradient id="SVGID_1_" gradientUnits="userSpaceOnUse" x1="29" x2="29" xlink:href="#lg1" y1="-1.609" y2="74.983"></linearGradient><linearGradient id="SVGID_00000169533741625403317020000009750577260316796320_" gradientUnits="userSpaceOnUse" x1="30.439" x2="30.439" xlink:href="#lg1" y1="-1.609" y2="74.983"></linearGradient><path d="m1.876 6.485c.32.118.652.177.984.177.075 0 .148-.018.222-.024l.158.331c.008.021.006.043.015.064.012.022.032.037.044.058l3.171 6.643c0 .001 0 .002.001.003s.002.002.002.003l4.555 9.543c-.125.146-.248.296-.357.466-.618.965-.822 2.104-.56 3.126.236.918.805 1.63 1.319 2.226.548.635 1.281 1.255 1.991 1.855.273.231.533.453.772.667 3.24 7.02 9.43 8.221 12.334 8.378-.436 1.758-.953 4.015-1.539 6.87-.011.082-.209 1.902 1.063 3.812l.95 11.503c.025.303.187.578.439.748.096.064 1.631 1.073 3.675 1.073 1.055 0 2.244-.269 3.44-1.073.279-.187.445-.497.445-.83v-7.262c.946.093 1.929.158 2.98.158 1.076 0 2.07-.061 3.02-.155v7.258c0 .333.166.644.442.83 1.196.805 2.386 1.073 3.44 1.073 2.044 0 3.579-1.009 3.675-1.073.253-.17.414-.445.439-.748l.953-11.532c.954-1.445 1.06-2.821 1.044-3.469.069.003.141.017.209.017 2.223-.001 3.94-1.614 4.629-2.646.191-.287.222-.654.078-.969l-4.667-10.267c4.425-2.849 6.758-7.156 6.758-12.539 0-10.876-9.542-20.78-20.02-20.78s-20.02 9.904-20.02 20.78c0 2.1.36 4.034 1.055 5.785l-.258.203c-.035-.177-.064-.356-.128-.526-.41-1.09-1.357-1.879-2.413-2.008-.073-.01-.146-.015-.22-.021-.015-.001-.029-.002-.042-.002-.034-.075-.075-.185-.104-.265-.08-.214-.17-.456-.317-.696-.542-.886-1.681-1.33-2.763-1.076-.016.004-.031.013-.047.017l-4.006-8.393.897-.416.621 1.341c.111.241.313.428.562.519.111.041.229.062.345.062.144 0 .287-.031.421-.093l7.87-3.647c.501-.232.719-.826.486-1.328l-3.126-6.746c-.111-.24-.313-.427-.563-.518-.249-.091-.523-.08-.765.031l-1.903.882-.622-1.341c-.111-.241-.313-.428-.562-.519s-.523-.08-.766.031l-6.119 2.837c.015-.037.038-.07.052-.107.264-.716.23-1.492-.091-2.187-.321-.693-.893-1.22-1.609-1.482-.716-.264-1.492-.232-2.187.09-.693.321-1.22.893-1.482 1.609-.264.717-.23 1.493.091 2.187s.892 1.22 1.609 1.482zm27.077 55.006-.718-8.694c1.261.822 2.853 1.415 4.765 1.773v6.966c-1.691.878-3.32.308-4.047-.045zm5.19-8.751c-2.895-.415-4.957-1.35-6.141-2.769l-.004-.053-.042.003c-.005-.006-.01-.01-.015-.016-1.095-1.367-.976-2.704-.98-2.704 1.515-7.371 2.574-10.689 2.88-11.579 2.499.755 5.223 1.158 8.141 1.158 2.947 0 5.683-.409 8.173-1.171.296.876 1.334 4.182 2.844 11.511.007.06.126 1.416-.992 2.798h-.002v.003c-.052.064-.092.128-.15.193-1.695 1.888-5.109 2.886-9.875 2.886-1.381 0-2.671-.087-3.837-.26zm8.857 8.796v-6.972c1.917-.365 3.509-.964 4.767-1.794l-.72 8.72c-.726.352-2.358.921-4.047.046zm7.618-16.418c-1.358-6.369-2.275-9.288-2.574-10.164.502-.202.984-.419 1.449-.652l4.344 9.556c-.544.601-1.714 1.588-3.219 1.26zm-12.855-36.319h.116.238c2.188.002 5.382-.002 7.971 1.273 3.013 1.481 4.478 4.343 4.478 8.746v5.169c-.004.323-.233 7.925-12.574 8.055-11.47-.119-12.496-6.623-12.585-7.926-.001-.014-.01-.109-.012-.123v-5.175c0-.691.049-1.358.145-1.984 1.202-7.932 9.361-8.035 12.223-8.035zm-6.215-1.208v-4.186c.562-.247 1.135-.46 1.718-.645l.007 4.424c-.605.11-1.176.249-1.725.407zm11.148-.548v-4.282c.582.184 1.155.398 1.717.645v3.966c-.575-.143-1.149-.25-1.717-.329zm-2-4.773v4.583c-.884-.047-1.716-.055-2.435-.055-.049 0-.098 0-.145 0h-.236c-.006 0-.012 0-.018 0-.909 0-1.766.045-2.59.12l-.007-4.648c.894-.162 1.798-.27 2.715-.27.918 0 1.822.108 2.716.27zm-11.148 2.154v3.901c-3.128 1.439-5.076 3.897-5.82 7.359h-.012c-1.675 0-3.038 1.366-3.038 3.046v3.409c0 1.621 1.273 2.937 2.866 3.028.516 2.489 2.954 8.755 14.447 8.875 11.374-.12 13.871-6.249 14.419-8.874 1.597-.088 2.873-1.406 2.873-3.029v-3.409c0-1.667-1.344-3.022-3.002-3.042-.639-3.486-2.407-5.982-5.311-7.41-.183-.09-.372-.159-.558-.238v-3.615c5.563 3.316 9.588 9.628 9.588 16.355 0 5.051-2.368 9.015-6.853 11.464-.825.455-1.735.855-2.711 1.193-2.521.891-5.365 1.343-8.456 1.343-3.014 0-5.927-.458-8.417-1.323-.96-.339-1.889-.748-2.754-1.215-4.481-2.447-6.85-6.411-6.85-11.462.001-6.727 4.026-13.039 9.589-16.356zm-6.87 17.715v-3.409c0-.476.323-.862.756-.988-.024.353-.039.712-.039 1.077v4.301c-.413-.139-.717-.519-.717-.981zm29.836-4.401c.439.122.769.51.769.991v3.409c0 .463-.304.843-.718.981v-4.301c0-.374-.031-.722-.051-1.08zm-26.659 16.263c.668.36 1.374.674 2.094.966-.158.456-.47 1.419-.912 3.063-2.126-.031-7.735-.717-10.792-6.739l3.664-2.886c1.329 2.274 3.321 4.161 5.946 5.596zm-12.028-9.704c.064.104.103.228.147.348.163.438.409 1.101 1.133 1.408.287.123.552.143.745.156l.119.01c.316.039.639.338.785.728.119.316.115.825.006 1.393l-1.73 1.362c-.106-.09-.211-.18-.32-.272-.65-.55-1.323-1.119-1.769-1.635-.383-.443-.768-.919-.896-1.417-.123-.479-.009-1.058.307-1.55.239-.376.556-.633.866-.704.235-.056.518.025.607.173zm1.571-19.059 2.285 4.931-6.055 2.807-.201-.434 4.152-1.925c.501-.232.719-.826.486-1.328l-1.662-3.589zm-3.13.613-2.465 1.142c-.364.169-.579.53-.579.908 0 .141.029.283.093.42.168.365.53.579.908.579.141 0 .283-.029.42-.093l2.465-1.142.722 1.557-5.976 2.77-2.343-4.904 6.033-2.796zm-10.215-2.346c.079-.215.237-.387.447-.484.115-.053.238-.081.362-.081.099 0 .198.018.294.053.215.079.387.237.484.447.097.209.106.441.028.656-.079.216-.237.387-.447.484-.207.097-.441.108-.657.028-.214-.079-.386-.237-.483-.447-.097-.209-.106-.441-.028-.656z" fill="url(#SVGID_1_)" ></path><path d="m27.071 20.088c.049.161.196.652.674.931.209.123.445.185.692.185.174 0 .354-.031.533-.093 1.05-.356 1.488-1.345 1.829-2.117.494-1.116 1.142-2.157 1.925-3.095l.08-.096c.575-.684 1.362-1.619 1.245-2.83-.044-.469-.226-.872-.522-1.163-.277-.273-.909-.687-2.024-.388-1.769.472-3.193 1.9-4.119 4.131-.629 1.519-.739 3.132-.313 4.535zm2.16-3.769c.473-1.14 1.341-2.579 2.787-2.966.009-.002.017-.004.024-.006-.083.352-.444.781-.769 1.167l-.084.101c-.903 1.082-1.65 2.282-2.241 3.618-.04.091-.083.189-.13.288-.031-.71.108-1.465.413-2.202z" fill="url(#SVGID_00000169533741625403317020000009750577260316796320_)"></path></svg>