<?xml version="1.0" encoding="utf-8"?><!-- Uploaded to: SVG Repo, www.svgrepo.com, Generator: SVG Repo Mixer Tools -->
<svg fill="#fff" viewBox="0 0 1024 1024" xmlns="http://www.w3.org/2000/svg"><path d="M385.707 436.152c0-35.468-75.779-71.68-172.37-71.68-96.6 0-172.38 36.211-172.38 71.68s75.78 71.68 172.38 71.68c96.591 0 172.37-36.212 172.37-71.68zm40.96 0c0 66.334-96.901 112.64-213.33 112.64-116.438 0-213.34-46.305-213.34-112.64s96.903-112.64 213.34-112.64c116.429 0 213.33 46.306 213.33 112.64zm-40.96 371.371c0 35.468-75.779 71.68-172.37 71.68-96.6 0-172.38-36.211-172.38-71.68H-.003c0 66.335 96.903 112.64 213.34 112.64 116.429 0 213.33-46.306 213.33-112.64h-40.96zm0-124.928c0 35.468-75.779 71.68-172.37 71.68-96.6 0-172.38-36.211-172.38-71.68H-.003c0 66.335 96.903 112.64 213.34 112.64 116.429 0 213.33-46.306 213.33-112.64h-40.96zm0-122.88c0 35.468-75.779 71.68-172.37 71.68-96.6 0-172.38-36.211-172.38-71.68H-.003c0 66.335 96.903 112.64 213.34 112.64 116.429 0 213.33-46.306 213.33-112.64h-40.96z"/><path d="M0 436.152v374.784c0 11.311 9.169 20.48 20.48 20.48s20.48-9.169 20.48-20.48V436.152c0-11.311-9.169-20.48-20.48-20.48S0 424.841 0 436.152zm385.707 0V806.84c0 11.311 9.169 20.48 20.48 20.48s20.48-9.169 20.48-20.48V436.152c0-11.311-9.169-20.48-20.48-20.48s-20.48 9.169-20.48 20.48zm566.335 443.051c16.962 0 30.72-13.758 30.72-30.72V184.317c0-16.962-13.758-30.72-30.72-30.72H546.405c-16.962 0-30.72 13.758-30.72 30.72v664.166c0 16.962 13.758 30.72 30.72 30.72h405.637zm0 40.96H546.405c-39.583 0-71.68-32.097-71.68-71.68V184.317c0-39.583 32.097-71.68 71.68-71.68h405.637c39.583 0 71.68 32.097 71.68 71.68v664.166c0 39.583-32.097 71.68-71.68 71.68z"/><path d="M892.446 293.421H606.002v60.652h286.444v-60.652zm10.24 101.612H595.762c-16.963 0-30.72-13.757-30.72-30.72v-81.132c0-16.963 13.757-30.72 30.72-30.72h306.924c16.963 0 30.72 13.757 30.72 30.72v81.132c0 16.963-13.757 30.72-30.72 30.72zM653.265 503.018c0 18.708-15.165 33.864-33.874 33.864-18.698 0-33.864-15.155-33.864-33.864s15.165-33.864 33.864-33.864c18.708 0 33.874 15.155 33.874 33.864zm129.831 0c0 18.708-15.165 33.864-33.864 33.864-18.708 0-33.874-15.155-33.874-33.864s15.165-33.864 33.874-33.864c18.698 0 33.864 15.155 33.864 33.864zm129.83-2.822c0 18.708-15.165 33.864-33.874 33.864-18.698 0-33.864-15.155-33.864-33.864s15.165-33.874 33.864-33.874c18.708 0 33.874 15.165 33.874 33.874zM653.265 624.382c0 18.708-15.165 33.864-33.874 33.864-18.698 0-33.864-15.155-33.864-33.864s15.165-33.874 33.864-33.874c18.708 0 33.874 15.165 33.874 33.874zm129.831 0c0 18.708-15.165 33.864-33.864 33.864-18.708 0-33.874-15.155-33.874-33.864s15.165-33.874 33.874-33.874c18.698 0 33.864 15.165 33.864 33.874zm129.83 0c0 18.708-15.165 33.864-33.874 33.864-18.698 0-33.864-15.155-33.864-33.864s15.165-33.874 33.864-33.874c18.708 0 33.874 15.165 33.874 33.874zM653.265 748.568c0 18.708-15.165 33.864-33.874 33.864-18.698 0-33.864-15.155-33.864-33.864s15.165-33.874 33.864-33.874c18.708 0 33.874 15.165 33.874 33.874zm129.831 0c0 18.708-15.165 33.864-33.864 33.864-18.708 0-33.874-15.155-33.874-33.864s15.165-33.874 33.874-33.874c18.698 0 33.864 15.165 33.864 33.874zm129.83 0c0 18.708-15.165 33.864-33.874 33.864-18.698 0-33.864-15.155-33.864-33.864s15.165-33.874 33.864-33.874c18.708 0 33.874 15.165 33.874 33.874z"/></svg>