<?xml version="1.0" encoding="iso-8859-1"?>
<!-- Uploaded to: SVG Repo, www.svgrepo.com, Generator: SVG Repo Mixer Tools -->
<svg fill="#000000" height="800px" width="800px" version="1.1" id="Layer_1" xmlns="http://www.w3.org/2000/svg" xmlns:xlink="http://www.w3.org/1999/xlink" 
	 viewBox="0 0 512 512" xml:space="preserve">
<g>
	<g>
		<path d="M349.15,405.167c-4.081-4.08-10.696-4.08-14.777,0l-0.097,0.097c-4.08,4.08-4.08,10.697,0,14.778
			c2.041,2.041,4.715,3.06,7.388,3.06c2.674,0,5.348-1.02,7.388-3.06l0.097-0.097C353.23,415.864,353.23,409.248,349.15,405.167z"/>
	</g>
</g>
<g>
	<g>
		<path d="M253.918,166.512c-5.77,0-10.449,4.678-10.449,10.449v0.264c0,5.771,4.679,10.449,10.449,10.449
			c5.77,0,10.449-4.678,10.449-10.449v-0.264C264.367,171.19,259.687,166.512,253.918,166.512z"/>
	</g>
</g>
<g>
	<g>
		<path d="M344.806,166.512c-5.77,0-10.449,4.678-10.449,10.449v0.264c0,5.771,4.679,10.449,10.449,10.449
			c5.77,0,10.449-4.678,10.449-10.449v-0.264C355.255,171.19,350.577,166.512,344.806,166.512z"/>
	</g>
</g>
<g>
	<g>
		<path d="M455.75,190.781h-59.726v-49.11h29.257v3.345c0,5.771,4.679,10.449,10.449,10.449c5.77,0,10.449-4.678,10.449-10.449
			v-13.794c0-5.771-4.679-10.449-10.449-10.449h-50.155c-5.77,0-10.449,4.678-10.449,10.449v59.559H305.1v-49.11h29.257v3.345
			c0,5.771,4.679,10.449,10.449,10.449c5.77,0,10.449-4.678,10.449-10.449v-13.794c0-5.771-4.679-10.449-10.449-10.449h-50.155
			c-5.77,0-10.449,4.678-10.449,10.449v59.559h-69.99v-49.11h29.257v3.345c0,5.771,4.679,10.449,10.449,10.449
			c5.77,0,10.449-4.678,10.449-10.449v-13.794c0-5.771-4.679-10.449-10.449-10.449h-50.155c-5.77,0-10.449,4.678-10.449,10.449
			v59.559h-9.586c-5.77,0-10.449,4.678-10.449,10.449c0,5.771,4.679,10.449,10.449,10.449H455.75c5.77,0,10.449-4.678,10.449-10.449
			C466.199,195.459,461.52,190.781,455.75,190.781z"/>
	</g>
</g>
<g>
	<g>
		<path d="M435.73,166.512c-5.77,0-10.449,4.678-10.449,10.449v0.264c0,5.771,4.679,10.449,10.449,10.449
			c5.77,0,10.449-4.678,10.449-10.449v-0.264C446.179,171.19,441.5,166.512,435.73,166.512z"/>
	</g>
</g>
<g>
	<g>
		<path d="M253.918,281.364c-5.77,0-10.449,4.678-10.449,10.449v0.264c0,5.771,4.679,10.449,10.449,10.449
			c5.77,0,10.449-4.678,10.449-10.449v-0.264C264.367,286.042,259.687,281.364,253.918,281.364z"/>
	</g>
</g>
<g>
	<g>
		<path d="M344.806,281.364c-5.77,0-10.449,4.678-10.449,10.449v0.264c0,5.771,4.679,10.449,10.449,10.449
			c5.77,0,10.449-4.678,10.449-10.449v-0.264C355.255,286.042,350.577,281.364,344.806,281.364z"/>
	</g>
</g>
<g>
	<g>
		<path d="M455.75,305.633h-59.726v-51.374h29.257v3.345c0,5.771,4.679,10.449,10.449,10.449c5.77,0,10.449-4.678,10.449-10.449
			v-13.794c0-5.771-4.679-10.449-10.449-10.449h-50.155c-5.77,0-10.449,4.678-10.449,10.449v61.823H305.1v-49.11h29.257v3.345
			c0,5.771,4.679,10.449,10.449,10.449c5.77,0,10.449-4.678,10.449-10.449v-13.794c0-5.771-4.679-10.449-10.449-10.449h-50.155
			c-5.77,0-10.449,4.678-10.449,10.449v59.559h-69.99v-49.11h29.257v3.345c0,5.771,4.679,10.449,10.449,10.449
			c5.77,0,10.449-4.678,10.449-10.449v-13.794c0-5.771-4.679-10.449-10.449-10.449h-50.155c-5.77,0-10.449,4.678-10.449,10.449
			v59.559h-9.586c-5.77,0-10.449,4.678-10.449,10.449c0,5.771,4.679,10.449,10.449,10.449H455.75c5.77,0,10.449-4.678,10.449-10.449
			C466.199,310.311,461.52,305.633,455.75,305.633z"/>
	</g>
</g>
<g>
	<g>
		<path d="M435.73,281.364c-5.77,0-10.449,4.678-10.449,10.449v0.264c0,5.771,4.679,10.449,10.449,10.449
			c5.77,0,10.449-4.678,10.449-10.449v-0.264C446.179,286.042,441.5,281.364,435.73,281.364z"/>
	</g>
</g>
<g>
	<g>
		<path d="M501.551,82.547c5.77,0,10.449-4.678,10.449-10.449v-49.11c0-5.771-4.679-10.449-10.449-10.449H137.926
			c-5.77,0-10.449,4.678-10.449,10.449v49.11c0,5.771,4.679,10.449,10.449,10.449h8.34v113.555
			c-12.402-11.621-29.244-18.905-47.49-18.905c-36.143,0-65.547,29.355-65.547,65.439c0,8.54,1.672,16.964,4.884,24.797
			c-23.991,18.617-38.059,47.037-38.059,77.734c0,50.805,38.714,92.751,88.24,97.994v35.403H10.449
			C4.679,478.563,0,483.241,0,489.012c0,5.771,4.679,10.449,10.449,10.449h491.102c5.77,0,10.449-4.678,10.449-10.449
			c0-5.771-4.679-10.449-10.449-10.449h-8.34V82.547H501.551z M146.267,478.563h-37.075v-35.424
			c13.011-1.387,25.638-5.339,37.075-11.594V478.563z M146.269,406.67c-10.931,8.428-23.564,13.687-37.075,15.464v-61.482
			c0-0.003,0-0.007,0-0.01v-67.737l19.786-19.785c4.08-4.08,4.08-10.697,0-14.777c-4.08-4.08-10.695-4.08-14.778,0l-5.008,5.008
			v-9.242c0-5.771-4.679-10.449-10.449-10.449c-5.77,0-10.449,4.678-10.449,10.449v34.462c0,0.003,0,0.007,0,0.01v46.838
			l-21.203-21.203c-4.079-4.08-10.693-4.08-14.778,0c-4.08,4.08-4.08,10.697,0,14.777l35.979,35.98v57.119
			c-37.971-5.126-67.342-37.658-67.342-76.926c0-26.675,13.499-51.175,36.11-65.537c4.78-3.036,6.271-9.33,3.361-14.189
			c-4.118-6.875-6.294-14.761-6.294-22.804c0-24.559,20.03-44.541,44.65-44.541c25.265,0,47.427,20.813,47.427,44.541
			c0,0.381,0.023,0.759,0.064,1.13V406.67z M363.631,478.563h-73.1l34.62-34.62c4.08-4.08,4.08-10.697,0-14.777
			s-10.695-4.08-14.778,0l-34.513,34.513v-35.582l70.133-70.133h17.639V478.563z M275.86,398.542v-40.578h40.578L275.86,398.542z
			 M384.53,478.563V347.515c0-5.771-4.679-10.449-10.449-10.449h-32.412h-0.01H265.41c-5.77,0-10.449,4.678-10.449,10.449v131.048
			h-87.797V82.547h305.147v396.016H384.53z M491.102,61.649h-8.34H156.716h-8.34V33.437h342.727V61.649z"/>
	</g>
</g>
<g>
	<g>
		<path d="M228.305,356.877h-34.482c-5.77,0-10.449,4.678-10.449,10.449v63.783c0,5.771,4.679,10.449,10.449,10.449
			c5.77,0,10.449-4.678,10.449-10.449v-53.334h13.584v2.118c0,5.771,4.679,10.449,10.449,10.449c5.77,0,10.449-4.678,10.449-10.449
			v-12.567C238.754,361.555,234.076,356.877,228.305,356.877z"/>
	</g>
</g>
<g>
	<g>
		<path d="M228.305,398.548c-5.77,0-10.449,4.678-10.449,10.449v0.241c0,5.771,4.679,10.449,10.449,10.449
			c5.77,0,10.449-4.678,10.449-10.449v-0.241C238.754,403.226,234.076,398.548,228.305,398.548z"/>
	</g>
</g>
<g>
	<g>
		<path d="M445.67,356.877h-34.482c-5.77,0-10.449,4.678-10.449,10.449v63.783c0,5.771,4.679,10.449,10.449,10.449
			s10.449-4.678,10.449-10.449v-53.334h13.584v2.118c0,5.771,4.679,10.449,10.449,10.449s10.449-4.678,10.449-10.449v-12.567
			C456.119,361.555,451.44,356.877,445.67,356.877z"/>
	</g>
</g>
<g>
	<g>
		<path d="M445.67,398.548c-5.77,0-10.449,4.678-10.449,10.449v0.241c0,5.771,4.679,10.449,10.449,10.449
			s10.449-4.678,10.449-10.449v-0.241C456.119,403.226,451.44,398.548,445.67,398.548z"/>
	</g>
</g>
</svg>