<?xml version='1.0' encoding='iso-8859-1'?>
<!-- Uploaded to: SVG Repo, www.svgrepo.com, Generator: SVG Repo Mixer Tools -->
<svg fill="#fff" height="24px" width="24px" version="1.1" xmlns="http://www.w3.org/2000/svg" viewBox="0 0 463 463" xmlns:xlink="http://www.w3.org/1999/xlink" enable-background="new 0 0 463 463">
  <g>
    <path d="M455.5,392H447V127.5c0-4.142-3.358-7.5-7.5-7.5h-43.021c-4.413-9.549-14.106-16-24.979-16s-20.567,6.451-24.979,16H311V71   h0.5c4.142,0,7.5-3.358,7.5-7.5s-3.358-7.5-7.5-7.5h-152c-4.142,0-7.5,3.358-7.5,7.5s3.358,7.5,7.5,7.5h0.5v113H15.5   c-4.142,0-7.5,3.358-7.5,7.5s3.358,7.5,7.5,7.5H16v193H7.5c-4.142,0-7.5,3.358-7.5,7.5s3.358,7.5,7.5,7.5h160h136h152   c4.142,0,7.5-3.358,7.5-7.5S459.642,392,455.5,392z M351.903,135c3.567,0,6.64-2.512,7.35-6.008   c1.175-5.79,6.326-9.992,12.247-9.992s11.071,4.202,12.247,9.992c0.71,3.496,3.783,6.008,7.35,6.008H432v257H311V135H351.903z    M160,199v9H31v-9H160z M31,223h129v169H31V223z M175,392V71h121v321H175z"/>
    <path d="m327.5,367h32c4.142,0 7.5-3.358 7.5-7.5v-72c0-4.142-3.358-7.5-7.5-7.5h-32c-4.142,0-7.5,3.358-7.5,7.5v72c0,4.142 3.358,7.5 7.5,7.5zm7.5-15v-25h17v25h-17zm17-57v17h-17v-17h17z"/>
    <path d="m383.5,367h32c4.142,0 7.5-3.358 7.5-7.5v-72c0-4.142-3.358-7.5-7.5-7.5h-32c-4.142,0-7.5,3.358-7.5,7.5v72c0,4.142 3.358,7.5 7.5,7.5zm7.5-15v-25h17v25h-17zm17-57v17h-17v-17h17z"/>
    <path d="m327.5,255h32c4.142,0 7.5-3.358 7.5-7.5v-70c0-5.238-4.262-9.5-9.5-9.5h-28c-5.238,0-9.5,4.262-9.5,9.5v70c0,4.142 3.358,7.5 7.5,7.5zm7.5-15v-25h17v25h-17zm17-57v17h-17v-17h17z"/>
    <path d="m383.5,255h32c4.142,0 7.5-3.358 7.5-7.5v-70c0-5.238-4.262-9.5-9.5-9.5h-28c-5.238,0-9.5,4.262-9.5,9.5v70c0,4.142 3.358,7.5 7.5,7.5zm7.5-15v-25h17v25h-17zm17-57v17h-17v-17h17z"/>
    <path d="m223.5,288h-32c-4.142,0-7.5,3.358-7.5,7.5v64c0,4.142 3.358,7.5 7.5,7.5h32c4.142,0 7.5-3.358 7.5-7.5v-64c0-4.142-3.358-7.5-7.5-7.5zm-7.5,15v9h-17v-9h17zm-17,49v-25h17v25h-17z"/>
    <path d="m279.5,288h-32c-4.142,0-7.5,3.358-7.5,7.5v64c0,4.142 3.358,7.5 7.5,7.5h32c4.142,0 7.5-3.358 7.5-7.5v-64c0-4.142-3.358-7.5-7.5-7.5zm-7.5,15v9h-17v-9h17zm-17,49v-25h17v25h-17z"/>
    <path d="m223.5,192h-32c-4.142,0-7.5,3.358-7.5,7.5v64c0,4.142 3.358,7.5 7.5,7.5h32c4.142,0 7.5-3.358 7.5-7.5v-64c0-4.142-3.358-7.5-7.5-7.5zm-7.5,15v9h-17v-9h17zm-17,49v-25h17v25h-17z"/>
    <path d="m279.5,192h-32c-4.142,0-7.5,3.358-7.5,7.5v64c0,4.142 3.358,7.5 7.5,7.5h32c4.142,0 7.5-3.358 7.5-7.5v-64c0-4.142-3.358-7.5-7.5-7.5zm-7.5,15v9h-17v-9h17zm-17,49v-25h17v25h-17z"/>
    <path d="m223.5,96h-32c-4.142,0-7.5,3.358-7.5,7.5v64c0,4.142 3.358,7.5 7.5,7.5h32c4.142,0 7.5-3.358 7.5-7.5v-64c0-4.142-3.358-7.5-7.5-7.5zm-7.5,15v9h-17v-9h17zm-17,49v-25h17v25h-17z"/>
    <path d="m279.5,96h-32c-4.142,0-7.5,3.358-7.5,7.5v64c0,4.142 3.358,7.5 7.5,7.5h32c4.142,0 7.5-3.358 7.5-7.5v-64c0-4.142-3.358-7.5-7.5-7.5zm-7.5,15v9h-17v-9h17zm-17,49v-25h17v25h-17z"/>
    <path d="m143.5,240h-96c-4.142,0-7.5,3.358-7.5,7.5v120c0,4.142 3.358,7.5 7.5,7.5h96c4.142,0 7.5-3.358 7.5-7.5v-120c0-4.142-3.358-7.5-7.5-7.5zm-88.5,55h33v25h-33v-25zm48,0h33v25h-33v-25zm33-15h-33v-25h33v25zm-48-25v25h-33v-25h33zm-33,80h33v25h-33v-25zm48,25v-25h33v25h-33z"/>
  </g>
</svg>