<?xml version="1.0" ?><!-- Uploaded to: SVG Repo, www.svgrepo.com, Generator: SVG Repo Mixer Tools -->
<svg fill="#fff" width="24px" height="24px" viewBox="-45.5 0 209 209" xmlns="http://www.w3.org/2000/svg"><path d="     M 110.948512911797,70.0476213693619     C 110.948512911797,70.0476213693619 110.948512911797,207.740958452225 110.948512911797,207.740958452225     C 110.948512911797,207.740958452225 8.01048409938812,207.740958452225 8.01048409938812,207.740958452225     C 8.01048409938812,207.740958452225 8.01048409938812,70.0476213693619 8.01048409938812,70.0476213693619     C 8.01048409938812,70.0476213693619 1.75363171100616,70.0476213693619 1.75363171100616,70.0476213693619     C 1.75363171100616,70.0476213693619 16.1492142677307,26.8402150273323 16.1492142677307,26.8402150273323     C 16.1492142677307,26.8402150273323 34.1435289382935,26.8402150273323 34.1435289382935,26.8402150273323     C 34.1435289382935,26.8402150273323 57.5362055301666,1.63596421480179 57.5362055301666,1.63596421480179     C 57.5362055301666,1.63596421480179 80.9288821220398,26.8402150273323 80.9288821220398,26.8402150273323     C 80.9288821220398,26.8402150273323 98.923231959343,26.8402150273323 98.923231959343,26.8402150273323     C 98.923231959343,26.8402150273323 116.917631030083,70.0476213693619 116.917631030083,70.0476213693619     C 116.917631030083,70.0476213693619 110.948512911797,70.0476213693619 110.948512911797,70.0476213693619     Z     M 69.0839010477066,171.281236469746     C 69.0839010477066,171.281236469746 69.0839010477066,160.011950075626 69.0839010477066,160.011950075626     C 69.0839010477066,156.583669185638 66.1280521154404,153.701320111752 62.1189382076263,152.864159882069     C 62.1189382076263,152.864159882069 62.1189382076263,171.281236469746 62.1189382076263,171.281236469746     C 62.1189382076263,171.281236469746 69.0839010477066,171.281236469746 69.0839010477066,171.281236469746     Z     M 58.1597540378571,171.281236469746     C 58.1597540378571,171.281236469746 58.1597540378571,152.721809506416 58.1597540378571,152.721809506416     C 53.729630947113,153.30804091692 50.3530682325363,156.347863614559 50.3530682325363,160.011950075626     C 50.3530682325363,160.011950075626 50.3530682325363,171.281236469746 50.3530682325363,171.281236469746     C 50.3530682325363,171.281236469746 58.1597540378571,171.281236469746 58.1597540378571,171.281236469746     Z     M 12.3489837646484,203.454564034939     C 12.3489837646484,203.454564034939 46.3386019468308,203.454564034939 46.3386019468308,203.454564034939     C 46.3386019468308,203.454564034939 46.3386019468308,157.78727543354 46.3386019468308,157.78727543354     C 46.3386019468308,151.953538537025 52.3287146091461,147.224421620369 59.7178164720535,147.224421620369     C 67.1069605350494,147.224421620369 73.0969958305359,151.953538537025 73.0969958305359,157.78727543354     C 73.0969958305359,157.78727543354 73.0969958305359,203.454564034939 73.0969958305359,203.454564034939     C 73.0969958305359,203.454564034939 106.609971046448,203.454564034939 106.609971046448,203.454564034939     C 106.609971046448,203.454564034939 106.609971046448,70.2344445586205 106.609971046448,70.2344445586205     C 106.609971046448,70.2344445586205 12.3489837646484,70.2344445586205 12.3489837646484,70.2344445586205     C 12.3489837646484,70.2344445586205 12.3489837646484,203.454564034939 12.3489837646484,203.454564034939     Z     M 57.5362055301666,8.83717161417007     C 57.5362055301666,8.83717161417007 37.7424228191376,30.440843641758 37.7424228191376,30.440843641758     C 37.7424228191376,30.440843641758 37.7424228191376,65.9478881955147 37.7424228191376,65.9478881955147     C 37.7424228191376,65.9478881955147 77.3299882411957,65.9478881955147 77.3299882411957,65.9478881955147     C 77.3299882411957,65.9478881955147 77.3299882411957,30.440843641758 77.3299882411957,30.440843641758     C 77.3299882411957,30.440843641758 57.5362055301666,8.83717161417007 57.5362055301666,8.83717161417007     Z     M 46.5116926431656,31.6683804988861     C 46.5116926431656,31.6683804988861 70.2666288614273,31.6683804988861 70.2666288614273,31.6683804988861     C 70.2666288614273,31.6683804988861 70.2666288614273,56.0949176549912 70.2666288614273,56.0949176549912     C 70.2666288614273,56.0949176549912 46.5116926431656,56.0949176549912 46.5116926431656,56.0949176549912     C 46.5116926431656,56.0949176549912 46.5116926431656,31.6683804988861 46.5116926431656,31.6683804988861     Z     M 59.9981375932693,53.4015344381332     C 59.9981375932693,53.4015344381332 67.7572990655899,53.4015344381332 67.7572990655899,53.4015344381332     C 67.7572990655899,53.4015344381332 67.7572990655899,45.6385743618011 67.7572990655899,45.6385743618011     C 67.7572990655899,45.6385743618011 59.9981375932693,45.6385743618011 59.9981375932693,45.6385743618011     C 59.9981375932693,45.6385743618011 59.9981375932693,53.4015344381332 59.9981375932693,53.4015344381332     Z     M 59.9981375932693,42.3775087594986     C 59.9981375932693,42.3775087594986 67.7572990655899,42.3775087594986 67.7572990655899,42.3775087594986     C 67.7572990655899,42.3775087594986 67.7572990655899,34.6145985126495 67.7572990655899,34.6145985126495     C 67.7572990655899,34.6145985126495 59.9981375932693,34.6145985126495 59.9981375932693,34.6145985126495     C 59.9981375932693,34.6145985126495 59.9981375932693,42.3775087594986 59.9981375932693,42.3775087594986     Z     M 48.9794553518295,53.4015344381332     C 48.9794553518295,53.4015344381332 56.7386590242386,53.4015344381332 56.7386590242386,53.4015344381332     C 56.7386590242386,53.4015344381332 56.7386590242386,45.6385743618011 56.7386590242386,45.6385743618011     C 56.7386590242386,45.6385743618011 48.9794553518295,45.6385743618011 48.9794553518295,45.6385743618011     C 48.9794553518295,45.6385743618011 48.9794553518295,53.4015344381332 48.9794553518295,53.4015344381332     Z     M 48.9794553518295,42.3775087594986     C 48.9794553518295,42.3775087594986 56.7386590242386,42.3775087594986 56.7386590242386,42.3775087594986     C 56.7386590242386,42.3775087594986 56.7386590242386,34.6145985126495 56.7386590242386,34.6145985126495     C 56.7386590242386,34.6145985126495 48.9794553518295,34.6145985126495 48.9794553518295,34.6145985126495     C 48.9794553518295,34.6145985126495 48.9794553518295,42.3775087594986 48.9794553518295,42.3775087594986     Z     M 77.7093881368637,115.417739391327     C 77.7093881368637,115.417739391327 101.464366555214,115.417739391327 101.464366555214,115.417739391327     C 101.464366555214,115.417739391327 101.464366555214,139.844276547432 101.464366555214,139.844276547432     C 101.464366555214,139.844276547432 77.7093881368637,139.844276547432 77.7093881368637,139.844276547432     C 77.7093881368637,139.844276547432 77.7093881368637,115.417739391327 77.7093881368637,115.417739391327     Z     M 91.1958330869675,137.150905787945     C 91.1958330869675,137.150905787945 98.955078959465,137.150905787945 98.955078959465,137.150905787945     C 98.955078959465,137.150905787945 98.955078959465,129.387983083725 98.955078959465,129.387983083725     C 98.955078959465,129.387983083725 91.1958330869675,129.387983083725 91.1958330869675,129.387983083725     C 91.1958330869675,129.387983083725 91.1958330869675,137.150905787945 91.1958330869675,137.150905787945     Z     M 91.1958330869675,126.126830279827     C 91.1958330869675,126.126830279827 98.955078959465,126.126830279827 98.955078959465,126.126830279827     C 98.955078959465,126.126830279827 98.955078959465,118.36395740509 98.955078959465,118.36395740509     C 98.955078959465,118.36395740509 91.1958330869675,118.36395740509 91.1958330869675,118.36395740509     C 91.1958330869675,118.36395740509 91.1958330869675,126.126830279827 91.1958330869675,126.126830279827     Z     M 80.1771930456162,137.150905787945     C 80.1771930456162,137.150905787945 87.9363545179367,137.150905787945 87.9363545179367,137.150905787945     C 87.9363545179367,137.150905787945 87.9363545179367,129.387983083725 87.9363545179367,129.387983083725     C 87.9363545179367,129.387983083725 80.1771930456162,129.387983083725 80.1771930456162,129.387983083725     C 80.1771930456162,129.387983083725 80.1771930456162,137.150905787945 80.1771930456162,137.150905787945     Z     M 80.1771930456162,126.126830279827     C 80.1771930456162,126.126830279827 87.9363545179367,126.126830279827 87.9363545179367,126.126830279827     C 87.9363545179367,126.126830279827 87.9363545179367,118.36395740509 87.9363545179367,118.36395740509     C 87.9363545179367,118.36395740509 80.1771930456162,118.36395740509 80.1771930456162,118.36395740509     C 80.1771930456162,118.36395740509 80.1771930456162,126.126830279827 80.1771930456162,126.126830279827     Z     M 77.7093881368637,83.0122313499451     C 77.7093881368637,83.0122313499451 101.464366555214,83.0122313499451 101.464366555214,83.0122313499451     C 101.464366555214,83.0122313499451 101.464366555214,107.43876850605 101.464366555214,107.43876850605     C 101.464366555214,107.43876850605 77.7093881368637,107.43876850605 77.7093881368637,107.43876850605     C 77.7093881368637,107.43876850605 77.7093881368637,83.0122313499451 77.7093881368637,83.0122313499451     Z     M 91.1958330869675,104.745385289192     C 91.1958330869675,104.745385289192 98.955078959465,104.745385289192 98.955078959465,104.745385289192     C 98.955078959465,104.745385289192 98.955078959465,96.9824252128601 98.955078959465,96.9824252128601     C 98.955078959465,96.9824252128601 91.1958330869675,96.9824252128601 91.1958330869675,96.9824252128601     C 91.1958330869675,96.9824252128601 91.1958330869675,104.745385289192 91.1958330869675,104.745385289192     Z     M 91.1958330869675,93.7213596105576     C 91.1958330869675,93.7213596105576 98.955078959465,93.7213596105576 98.955078959465,93.7213596105576     C 98.955078959465,93.7213596105576 98.955078959465,85.9584493637085 98.955078959465,85.9584493637085     C 98.955078959465,85.9584493637085 91.1958330869675,85.9584493637085 91.1958330869675,85.9584493637085     C 91.1958330869675,85.9584493637085 91.1958330869675,93.7213596105576 91.1958330869675,93.7213596105576     Z     M 80.1771930456162,104.745385289192     C 80.1771930456162,104.745385289192 87.9363545179367,104.745385289192 87.9363545179367,104.745385289192     C 87.9363545179367,104.745385289192 87.9363545179367,96.9824252128601 87.9363545179367,96.9824252128601     C 87.9363545179367,96.9824252128601 80.1771930456162,96.9824252128601 80.1771930456162,96.9824252128601     C 80.1771930456162,96.9824252128601 80.1771930456162,104.745385289192 80.1771930456162,104.745385289192     Z     M 80.1771930456162,93.7213596105576     C 80.1771930456162,93.7213596105576 87.9363545179367,93.7213596105576 87.9363545179367,93.7213596105576     C 87.9363545179367,93.7213596105576 87.9363545179367,85.9584493637085 87.9363545179367,85.9584493637085     C 87.9363545179367,85.9584493637085 80.1771930456162,85.9584493637085 80.1771930456162,85.9584493637085     C 80.1771930456162,85.9584493637085 80.1771930456162,93.7213596105576 80.1771930456162,93.7213596105576     Z     M 101.398407816887,172.449825048447     C 101.398407816887,172.449825048447 101.398407816887,183.266883969307 101.398407816887,183.266883969307     C 101.398407816887,183.266883969307 77.6435208320618,183.266883969307 77.6435208320618,183.266883969307     C 77.6435208320618,183.266883969307 77.6435208320618,172.449825048447 77.6435208320618,172.449825048447     C 77.6435208320618,172.449825048447 77.6435208320618,169.626910090446 77.6435208320618,169.626910090446     C 77.6435208320618,169.626910090446 77.6435208320618,148.023287892342 77.6435208320618,148.023287892342     C 77.6435208320618,148.023287892342 101.398407816887,148.023287892342 101.398407816887,148.023287892342     C 101.398407816887,148.023287892342 101.398407816887,172.449825048447 101.398407816887,172.449825048447     Z     M 87.8704379796982,150.969505906105     C 87.8704379796982,150.969505906105 80.1112343072891,150.969505906105 80.1112343072891,150.969505906105     C 80.1112343072891,150.969505906105 80.1112343072891,158.732416152954 80.1112343072891,158.732416152954     C 80.1112343072891,158.732416152954 87.8704379796982,158.732416152954 87.8704379796982,158.732416152954     C 87.8704379796982,158.732416152954 87.8704379796982,150.969505906105 87.8704379796982,150.969505906105     Z     M 87.8704379796982,161.99353158474     C 87.8704379796982,161.99353158474 80.1112343072891,161.99353158474 80.1112343072891,161.99353158474     C 80.1112343072891,161.99353158474 80.1112343072891,169.626910090446 80.1112343072891,169.626910090446     C 80.1112343072891,169.626910090446 87.8704379796982,169.626910090446 87.8704379796982,169.626910090446     C 87.8704379796982,169.626910090446 87.8704379796982,161.99353158474 87.8704379796982,161.99353158474     Z     M 87.8704379796982,172.57312810421     C 87.8704379796982,172.57312810421 80.1112343072891,172.57312810421 80.1112343072891,172.57312810421     C 80.1112343072891,172.57312810421 80.1112343072891,180.336100637913 80.1112343072891,180.336100637913     C 80.1112343072891,180.336100637913 87.8704379796982,180.336100637913 87.8704379796982,180.336100637913     C 87.8704379796982,180.336100637913 87.8704379796982,172.57312810421 87.8704379796982,172.57312810421     Z     M 98.889120221138,150.969505906105     C 98.889120221138,150.969505906105 91.130007982254,150.969505906105 91.130007982254,150.969505906105     C 91.130007982254,150.969505906105 91.130007982254,158.732416152954 91.130007982254,158.732416152954     C 91.130007982254,158.732416152954 98.889120221138,158.732416152954 98.889120221138,158.732416152954     C 98.889120221138,158.732416152954 98.889120221138,150.969505906105 98.889120221138,150.969505906105     Z     M 98.889120221138,161.99353158474     C 98.889120221138,161.99353158474 91.130007982254,161.99353158474 91.130007982254,161.99353158474     C 91.130007982254,161.99353158474 91.130007982254,169.626910090446 91.130007982254,169.626910090446     C 91.130007982254,169.626910090446 98.889120221138,169.626910090446 98.889120221138,169.626910090446     C 98.889120221138,169.626910090446 98.889120221138,161.99353158474 98.889120221138,161.99353158474     Z     M 98.889120221138,172.57312810421     C 98.889120221138,172.57312810421 91.130007982254,172.57312810421 91.130007982254,172.57312810421     C 91.130007982254,172.57312810421 91.130007982254,180.336100637913 91.130007982254,180.336100637913     C 91.130007982254,180.336100637913 98.889120221138,180.336100637913 98.889120221138,180.336100637913     C 98.889120221138,180.336100637913 98.889120221138,172.57312810421 98.889120221138,172.57312810421     Z     M 47.17904484272,116.350273251534     C 47.17904484272,116.350273251534 70.9339810609818,116.350273251534 70.9339810609818,116.350273251534     C 70.9339810609818,116.350273251534 70.9339810609818,140.776910066605 70.9339810609818,140.776910066605     C 70.9339810609818,140.776910066605 47.17904484272,140.776910066605 47.17904484272,140.776910066605     C 47.17904484272,140.776910066605 47.17904484272,116.350273251534 47.17904484272,116.350273251534     Z     M 60.6655319929123,138.083489477634     C 60.6655319929123,138.083489477634 68.4246020317078,138.083489477634 68.4246020317078,138.083489477634     C 68.4246020317078,138.083489477634 68.4246020317078,130.320566773415 68.4246020317078,130.320566773415     C 68.4246020317078,130.320566773415 60.6655319929123,130.320566773415 60.6655319929123,130.320566773415     C 60.6655319929123,130.320566773415 60.6655319929123,138.083489477634 60.6655319929123,138.083489477634     Z     M 60.6655319929123,127.059501171112     C 60.6655319929123,127.059501171112 68.4246020317078,127.059501171112 68.4246020317078,127.059501171112     C 68.4246020317078,127.059501171112 68.4246020317078,119.296590924263 68.4246020317078,119.296590924263     C 68.4246020317078,119.296590924263 60.6655319929123,119.296590924263 60.6655319929123,119.296590924263     C 60.6655319929123,119.296590924263 60.6655319929123,127.059501171112 60.6655319929123,127.059501171112     Z     M 49.6468497514725,138.083489477634     C 49.6468497514725,138.083489477634 57.4059690237045,138.083489477634 57.4059690237045,138.083489477634     C 57.4059690237045,138.083489477634 57.4059690237045,130.320566773415 57.4059690237045,130.320566773415     C 57.4059690237045,130.320566773415 49.6468497514725,130.320566773415 49.6468497514725,130.320566773415     C 49.6468497514725,130.320566773415 49.6468497514725,138.083489477634 49.6468497514725,138.083489477634     Z     M 49.6468497514725,127.059501171112     C 49.6468497514725,127.059501171112 57.4059690237045,127.059501171112 57.4059690237045,127.059501171112     C 57.4059690237045,127.059501171112 57.4059690237045,119.296590924263 57.4059690237045,119.296590924263     C 57.4059690237045,119.296590924263 49.6468497514725,119.296590924263 49.6468497514725,119.296590924263     C 49.6468497514725,119.296590924263 49.6468497514725,127.059501171112 49.6468497514725,127.059501171112     Z     M 47.17904484272,83.0122313499451     C 47.17904484272,83.0122313499451 70.9339810609818,83.0122313499451 70.9339810609818,83.0122313499451     C 70.9339810609818,83.0122313499451 70.9339810609818,107.43876850605 70.9339810609818,107.43876850605     C 70.9339810609818,107.43876850605 47.17904484272,107.43876850605 47.17904484272,107.43876850605     C 47.17904484272,107.43876850605 47.17904484272,83.0122313499451 47.17904484272,83.0122313499451     Z     M 60.6655319929123,104.745385289192     C 60.6655319929123,104.745385289192 68.4246020317078,104.745385289192 68.4246020317078,104.745385289192     C 68.4246020317078,104.745385289192 68.4246020317078,96.9824252128601 68.4246020317078,96.9824252128601     C 68.4246020317078,96.9824252128601 60.6655319929123,96.9824252128601 60.6655319929123,96.9824252128601     C 60.6655319929123,96.9824252128601 60.6655319929123,104.745385289192 60.6655319929123,104.745385289192     Z     M 60.6655319929123,93.7213596105576     C 60.6655319929123,93.7213596105576 68.4246020317078,93.7213596105576 68.4246020317078,93.7213596105576     C 68.4246020317078,93.7213596105576 68.4246020317078,85.9584493637085 68.4246020317078,85.9584493637085     C 68.4246020317078,85.9584493637085 60.6655319929123,85.9584493637085 60.6655319929123,85.9584493637085     C 60.6655319929123,85.9584493637085 60.6655319929123,93.7213596105576 60.6655319929123,93.7213596105576     Z     M 49.6468497514725,104.745385289192     C 49.6468497514725,104.745385289192 57.4059690237045,104.745385289192 57.4059690237045,104.745385289192     C 57.4059690237045,104.745385289192 57.4059690237045,96.9824252128601 57.4059690237045,96.9824252128601     C 57.4059690237045,96.9824252128601 49.6468497514725,96.9824252128601 49.6468497514725,96.9824252128601     C 49.6468497514725,96.9824252128601 49.6468497514725,104.745385289192 49.6468497514725,104.745385289192     Z     M 49.6468497514725,93.7213596105576     C 49.6468497514725,93.7213596105576 57.4059690237045,93.7213596105576 57.4059690237045,93.7213596105576     C 57.4059690237045,93.7213596105576 57.4059690237045,85.9584493637085 57.4059690237045,85.9584493637085     C 57.4059690237045,85.9584493637085 49.6468497514725,85.9584493637085 49.6468497514725,85.9584493637085     C 49.6468497514725,85.9584493637085 49.6468497514725,93.7213596105576 49.6468497514725,93.7213596105576     Z     M 18.3880836963654,115.417739391327     C 18.3880836963654,115.417739391327 42.1429777145386,115.417739391327 42.1429777145386,115.417739391327     C 42.1429777145386,115.417739391327 42.1429777145386,139.844276547432 42.1429777145386,139.844276547432     C 42.1429777145386,139.844276547432 18.3880836963654,139.844276547432 18.3880836963654,139.844276547432     C 18.3880836963654,139.844276547432 18.3880836963654,115.417739391327 18.3880836963654,115.417739391327     Z     M 31.8744864463806,137.150905787945     C 31.8744864463806,137.150905787945 39.6336479187012,137.150905787945 39.6336479187012,137.150905787945     C 39.6336479187012,137.150905787945 39.6336479187012,129.387983083725 39.6336479187012,129.387983083725     C 39.6336479187012,129.387983083725 31.8744864463806,129.387983083725 31.8744864463806,129.387983083725     C 31.8744864463806,129.387983083725 31.8744864463806,137.150905787945 31.8744864463806,137.150905787945     Z     M 31.8744864463806,126.126830279827     C 31.8744864463806,126.126830279827 39.6336479187012,126.126830279827 39.6336479187012,126.126830279827     C 39.6336479187012,126.126830279827 39.6336479187012,118.36395740509 39.6336479187012,118.36395740509     C 39.6336479187012,118.36395740509 31.8744864463806,118.36395740509 31.8744864463806,118.36395740509     C 31.8744864463806,118.36395740509 31.8744864463806,126.126830279827 31.8744864463806,126.126830279827     Z     M 20.8558042049408,137.150905787945     C 20.8558042049408,137.150905787945 28.6150078773499,137.150905787945 28.6150078773499,137.150905787945     C 28.6150078773499,137.150905787945 28.6150078773499,129.387983083725 28.6150078773499,129.387983083725     C 28.6150078773499,129.387983083725 20.8558042049408,129.387983083725 20.8558042049408,129.387983083725     C 20.8558042049408,129.387983083725 20.8558042049408,137.150905787945 20.8558042049408,137.150905787945     Z     M 20.8558042049408,126.126830279827     C 20.8558042049408,126.126830279827 28.6150078773499,126.126830279827 28.6150078773499,126.126830279827     C 28.6150078773499,126.126830279827 28.6150078773499,118.36395740509 28.6150078773499,118.36395740509     C 28.6150078773499,118.36395740509 20.8558042049408,118.36395740509 20.8558042049408,118.36395740509     C 20.8558042049408,118.36395740509 20.8558042049408,126.126830279827 20.8558042049408,126.126830279827     Z     M 18.3880836963654,83.0122313499451     C 18.3880836963654,83.0122313499451 42.1429777145386,83.0122313499451 42.1429777145386,83.0122313499451     C 42.1429777145386,83.0122313499451 42.1429777145386,107.43876850605 42.1429777145386,107.43876850605     C 42.1429777145386,107.43876850605 18.3880836963654,107.43876850605 18.3880836963654,107.43876850605     C 18.3880836963654,107.43876850605 18.3880836963654,83.0122313499451 18.3880836963654,83.0122313499451     Z     M 31.8744864463806,104.745385289192     C 31.8744864463806,104.745385289192 39.6336479187012,104.745385289192 39.6336479187012,104.745385289192     C 39.6336479187012,104.745385289192 39.6336479187012,96.9824252128601 39.6336479187012,96.9824252128601     C 39.6336479187012,96.9824252128601 31.8744864463806,96.9824252128601 31.8744864463806,96.9824252128601     C 31.8744864463806,96.9824252128601 31.8744864463806,104.745385289192 31.8744864463806,104.745385289192     Z     M 31.8744864463806,93.7213596105576     C 31.8744864463806,93.7213596105576 39.6336479187012,93.7213596105576 39.6336479187012,93.7213596105576     C 39.6336479187012,93.7213596105576 39.6336479187012,85.9584493637085 39.6336479187012,85.9584493637085     C 39.6336479187012,85.9584493637085 31.8744864463806,85.9584493637085 31.8744864463806,85.9584493637085     C 31.8744864463806,85.9584493637085 31.8744864463806,93.7213596105576 31.8744864463806,93.7213596105576     Z     M 20.8558042049408,104.745385289192     C 20.8558042049408,104.745385289192 28.6150078773499,104.745385289192 28.6150078773499,104.745385289192     C 28.6150078773499,104.745385289192 28.6150078773499,96.9824252128601 28.6150078773499,96.9824252128601     C 28.6150078773499,96.9824252128601 20.8558042049408,96.9824252128601 20.8558042049408,96.9824252128601     C 20.8558042049408,96.9824252128601 20.8558042049408,104.745385289192 20.8558042049408,104.745385289192     Z     M 20.8558042049408,93.7213596105576     C 20.8558042049408,93.7213596105576 28.6150078773499,93.7213596105576 28.6150078773499,93.7213596105576     C 28.6150078773499,93.7213596105576 28.6150078773499,85.9584493637085 28.6150078773499,85.9584493637085     C 28.6150078773499,85.9584493637085 20.8558042049408,85.9584493637085 20.8558042049408,85.9584493637085     C 20.8558042049408,85.9584493637085 20.8558042049408,93.7213596105576 20.8558042049408,93.7213596105576     Z     M 42.0829410552979,172.449825048447     C 42.0829410552979,172.449825048447 42.0829410552979,183.266883969307 42.0829410552979,183.266883969307     C 42.0829410552979,183.266883969307 18.3280048370361,183.266883969307 18.3280048370361,183.266883969307     C 18.3280048370361,183.266883969307 18.3280048370361,172.449825048447 18.3280048370361,172.449825048447     C 18.3280048370361,172.449825048447 18.3280048370361,169.626910090446 18.3280048370361,169.626910090446     C 18.3280048370361,169.626910090446 18.3280048370361,148.023287892342 18.3280048370361,148.023287892342     C 18.3280048370361,148.023287892342 42.0829410552979,148.023287892342 42.0829410552979,148.023287892342     C 42.0829410552979,148.023287892342 42.0829410552979,172.449825048447 42.0829410552979,172.449825048447     Z     M 28.5549219846725,150.969505906105     C 28.5549219846725,150.969505906105 20.7957675457001,150.969505906105 20.7957675457001,150.969505906105     C 20.7957675457001,150.969505906105 20.7957675457001,158.732416152954 20.7957675457001,158.732416152954     C 20.7957675457001,158.732416152954 28.5549219846725,158.732416152954 28.5549219846725,158.732416152954     C 28.5549219846725,158.732416152954 28.5549219846725,150.969505906105 28.5549219846725,150.969505906105     Z     M 28.5549219846725,161.99353158474     C 28.5549219846725,161.99353158474 20.7957675457001,161.99353158474 20.7957675457001,161.99353158474     C 20.7957675457001,161.99353158474 20.7957675457001,169.626910090446 20.7957675457001,169.626910090446     C 20.7957675457001,169.626910090446 28.5549219846725,169.626910090446 28.5549219846725,169.626910090446     C 28.5549219846725,169.626910090446 28.5549219846725,161.99353158474 28.5549219846725,161.99353158474     Z     M 28.5549219846725,172.57312810421     C 28.5549219846725,172.57312810421 20.7957675457001,172.57312810421 20.7957675457001,172.57312810421     C 20.7957675457001,172.57312810421 20.7957675457001,180.336100637913 20.7957675457001,180.336100637913     C 20.7957675457001,180.336100637913 28.5549219846725,180.336100637913 28.5549219846725,180.336100637913     C 28.5549219846725,180.336100637913 28.5549219846725,172.57312810421 28.5549219846725,172.57312810421     Z     M 39.5736956596375,150.969505906105     C 39.5736956596375,150.969505906105 31.8144497871399,150.969505906105 31.8144497871399,150.969505906105     C 31.8144497871399,150.969505906105 31.8144497871399,158.732416152954 31.8144497871399,158.732416152954     C 31.8144497871399,158.732416152954 39.5736956596375,158.732416152954 39.5736956596375,158.732416152954     C 39.5736956596375,158.732416152954 39.5736956596375,150.969505906105 39.5736956596375,150.969505906105     Z     M 39.5736956596375,161.99353158474     C 39.5736956596375,161.99353158474 31.8144497871399,161.99353158474 31.8144497871399,161.99353158474     C 31.8144497871399,161.99353158474 31.8144497871399,169.626910090446 31.8144497871399,169.626910090446     C 31.8144497871399,169.626910090446 39.5736956596375,169.626910090446 39.5736956596375,169.626910090446     C 39.5736956596375,169.626910090446 39.5736956596375,161.99353158474 39.5736956596375,161.99353158474     Z     M 39.5736956596375,172.57312810421     C 39.5736956596375,172.57312810421 31.8144497871399,172.57312810421 31.8144497871399,172.57312810421     C 31.8144497871399,172.57312810421 31.8144497871399,180.336100637913 31.8144497871399,180.336100637913     C 31.8144497871399,180.336100637913 39.5736956596375,180.336100637913 39.5736956596375,180.336100637913     C 39.5736956596375,180.336100637913 39.5736956596375,172.57312810421 39.5736956596375,172.57312810421     Z " fill-rule="nonzero" id="house-shape-PhotoshopSupply.com"/></svg>