<svg width="300" height="300" viewBox="0 0 300 300" fill="none" xmlns="http://www.w3.org/2000/svg">
<rect width="300" height="300" fill="#85009E" fill-opacity="0.27"/>
<path d="M149.548 142.353C150.973 142.353 152.398 142.353 153.823 142.353C155.438 142.353 156.388 143.12 156.388 144.461C156.388 145.898 155.438 146.569 153.823 146.569C152.398 146.569 150.973 146.569 149.548 146.569C149.548 145.228 149.548 143.79 149.548 142.353ZM125.51 149.731V146.665H118.099V149.731C119.429 149.731 121.804 149.731 125.51 149.731ZM125.51 157.108V153.371H114.394V143.12H125.415V139.383H110.688C110.688 145.323 110.688 151.168 110.688 157.108C114.014 157.108 116.199 157.108 125.51 157.108ZM133.871 139.383H137.576H143.087V143.12H137.576V157.108H133.871V143.12H128.36V139.383H133.871ZM173.11 143.79L175.675 149.922H170.545L173.11 143.79ZM167.599 157.108L169.31 152.988H176.72L178.431 157.108H182.231L174.82 139.287H171.4L163.894 157.108H167.599ZM219 150.114V146.377H211.589V150.114C212.919 150.114 215.39 150.114 219 150.114ZM219 157.108V153.371H207.979V143.12H219V139.383H204.273C204.273 145.323 204.273 151.168 204.273 157.108C205.033 157.108 205.794 157.108 206.554 157.108V161.707L211.114 157.108C213.774 157.108 216.435 157.108 219 157.108ZM91.9713 146.09L95.6767 149.826L106.128 139.287V157.012H102.422V148.293L95.6767 155.096L88.931 148.293V157.012H85.2256V144.557L80 139.383H85.2256L91.9713 146.09ZM194.107 146.76V150.401H196.008V152.892C195.152 153.659 194.012 154.042 192.492 154.042C190.877 154.042 189.547 153.467 188.407 152.509C187.362 151.455 186.792 150.018 186.792 148.293C186.792 146.473 187.362 145.132 188.502 144.078C189.642 143.024 191.067 142.449 192.872 142.449H199.618V139H192.872C192.777 139 192.682 139 192.587 139C189.832 139 187.552 139.862 185.746 141.587C183.941 143.311 183.086 145.515 183.086 148.198C183.086 150.88 184.036 153.084 185.746 154.808C187.552 156.533 189.737 157.395 192.397 157.395C193.917 157.395 195.247 157.108 196.578 156.629C197.813 156.054 198.858 155.383 199.618 154.617V150.401V146.76H196.008H194.107ZM149.548 157.108C149.548 154.713 149.548 152.126 149.548 149.826C150.593 149.826 151.543 149.826 152.588 149.826L157.718 157.108H161.899C160.094 154.617 158.288 151.934 156.483 149.347C158.763 148.677 160.094 146.952 160.094 144.557C160.094 143.024 159.524 141.778 158.479 140.82C157.433 139.862 155.913 139.383 154.013 139.383H145.842V157.108H149.548Z" fill="#E4E4E4"/>
</svg>
