<svg width="24" height="24" viewBox="0 0 24 24" fill="none" xmlns="http://www.w3.org/2000/svg">
<path fill-rule="evenodd" clip-rule="evenodd" d="M22 16V8C22 6.343 20.657 5 19 5H8.16903C7.30503 5 6.48403 5.372 5.91403 6.022C5.06403 6.991 3.48803 8.787 2.40503 10.022C1.41203 11.154 1.41203 12.846 2.40503 13.978C3.48803 15.213 5.06403 17.009 5.91403 17.978C6.48403 18.628 7.30503 19 8.16903 19H19C20.657 19 22 17.657 22 16ZM20 8V16C20 16.552 19.552 17 19 17H8.16903C7.88103 17 7.60703 16.876 7.41703 16.659L3.90903 12.659C3.57803 12.282 3.57803 11.718 3.90903 11.341L7.41703 7.341C7.60703 7.124 7.88103 7 8.16903 7H19C19.552 7 20 7.448 20 8ZM11.586 12L10.293 13.293C9.90303 13.683 9.90303 14.317 10.293 14.707C10.683 15.097 11.317 15.097 11.707 14.707L13 13.414L14.293 14.707C14.683 15.097 15.317 15.097 15.707 14.707C16.097 14.317 16.097 13.683 15.707 13.293L14.414 12L15.707 10.707C16.097 10.317 16.097 9.683 15.707 9.293C15.317 8.903 14.683 8.903 14.293 9.293L13 10.586L11.707 9.293C11.317 8.903 10.683 8.903 10.293 9.293C9.90303 9.683 9.90303 10.317 10.293 10.707L11.586 12Z" fill="#A74BD2"/>
</svg>
