<?xml version="1.0" standalone="no"?>
<!DOCTYPE svg PUBLIC "-//W3C//DTD SVG 20010904//EN"
 "http://www.w3.org/TR/2001/REC-SVG-20010904/DTD/svg10.dtd">
<svg version="1.0" xmlns="http://www.w3.org/2000/svg" viewBox="0 0 1080.000000 1080.000000"
 preserveAspectRatio="xMidYMid meet">

<g transform="translate(0.000000,1080.000000) scale(0.100000,-0.100000)" stroke="none">
<path d="M5340 9697 c-14 -7 -653 -413 -1420 -902 -767 -489 -1629 -1037
-1915 -1218 -286 -181 -535 -340 -553 -354 -89 -67 -80 -196 18 -245 28 -14
61 -18 168 -18 l132 0 0 -389 c0 -387 0 -388 23 -422 42 -63 67 -69 300 -69
l207 0 0 -247 c0 -228 2 -251 20 -280 25 -42 70 -64 141 -70 49 -5 58 -9 61
-27 4 -17 2 -1568 -1 -1883 l-1 -83 -55 0 c-68 0 -128 -28 -150 -70 -12 -24
-15 -74 -15 -275 l0 -245 -203 0 c-190 0 -205 -1 -247 -22 -79 -40 -80 -47
-80 -400 l0 -308 -179 0 c-168 0 -180 -1 -212 -23 -68 -45 -69 -52 -69 -439
l0 -348 -64 0 c-76 0 -121 -25 -150 -83 -31 -64 3 -155 69 -183 30 -12 602
-14 4237 -14 4049 0 4205 1 4238 18 47 25 83 94 75 142 -14 80 -68 120 -162
120 l-63 0 0 348 c0 387 -1 394 -69 439 -32 22 -44 23 -212 23 l-179 0 0 308
c0 353 -1 360 -80 400 -42 21 -57 22 -247 22 l-203 0 0 241 c0 268 -4 289 -63
324 -19 12 -58 22 -97 25 l-65 5 -1 991 -1 992 61 4 c72 6 119 27 143 65 16
23 19 61 23 278 l5 250 215 5 c238 6 251 9 290 73 19 30 20 53 20 420 l0 387
130 0 c143 0 178 9 220 55 21 23 25 36 25 91 0 58 -3 66 -30 93 -16 16 -817
529 -1780 1142 -962 612 -1838 1169 -1945 1237 -162 104 -202 126 -240 129
-26 2 -55 -2 -70 -10z m1748 -1372 l1681 -1070 -1685 -3 c-926 -1 -2442 -1
-3368 0 l-1685 3 1377 875 c757 481 1514 963 1682 1071 168 109 308 196 311
195 3 0 762 -482 1687 -1071z m1659 -1662 l-2 -298 -3345 0 -3345 0 -1 298 0
297 3347 0 3348 0 -2 -297z m-5049 -740 l3 -153 -58 0 c-70 0 -119 -22 -150
-69 l-23 -34 0 -1181 c0 -1154 1 -1182 20 -1213 26 -43 71 -65 147 -71 l63 -5
0 -148 0 -149 -560 0 -560 0 0 149 0 148 65 5 c76 7 121 30 146 78 18 33 19
82 19 1205 0 1094 -1 1172 -18 1204 -28 55 -63 75 -142 79 l-70 4 0 154 0 154
558 -2 557 -3 3 -152z m862 -90 c0 -228 2 -251 20 -280 26 -43 71 -65 146 -71
l62 -5 -1 -991 -2 -991 -65 -5 c-39 -3 -78 -13 -97 -25 -59 -35 -63 -56 -63
-324 l0 -241 -290 0 -289 0 -3 254 -3 254 -25 27 c-38 40 -59 49 -130 55 l-65
5 -3 991 -2 991 63 5 c76 6 121 28 147 71 18 29 20 52 20 280 l0 247 290 0
290 0 0 -247z m1400 92 l0 -155 -57 0 c-70 0 -119 -23 -150 -69 l-23 -34 0
-1176 c0 -1128 1 -1178 19 -1211 25 -48 70 -71 146 -78 l65 -5 0 -148 0 -149
-560 0 -560 0 0 149 0 148 65 5 c76 7 121 30 146 78 18 33 19 82 19 1205 0
1094 -1 1172 -18 1204 -28 55 -63 75 -142 79 l-70 4 0 154 0 154 560 0 560 0
0 -155z m860 -92 c0 -228 2 -251 20 -280 26 -43 71 -65 147 -71 l63 -5 -2
-991 -3 -991 -65 -5 c-39 -3 -78 -13 -97 -25 -59 -35 -63 -56 -63 -324 l0
-241 -290 0 -289 0 -3 254 -3 254 -25 27 c-38 40 -73 55 -134 55 -50 0 -56 2
-60 23 -3 12 -4 459 -3 992 l2 970 62 7 c76 8 118 29 143 71 18 29 20 52 20
280 l0 247 290 0 290 0 0 -247z m1400 92 l0 -155 -57 0 c-70 0 -119 -23 -150
-69 l-23 -34 0 -1176 c0 -1128 1 -1178 19 -1211 26 -50 70 -72 144 -74 l62 -1
3 -152 3 -153 -561 0 -561 0 3 153 3 152 63 2 c75 2 120 24 144 73 17 33 18
111 18 1211 l0 1176 -23 34 c-31 46 -80 69 -149 69 l-58 0 0 155 0 155 560 0
560 0 0 -155z m524 -3535 l1 -215 -3345 0 -3345 0 -1 200 c0 110 2 208 4 218
4 16 169 17 3345 15 l3341 -3 0 -215z m456 -765 l0 -265 -3800 0 -3800 0 0
265 0 265 3800 0 3800 0 0 -265z"/>
<path d="M5335 9010 c-22 -11 -465 -292 -985 -623 -747 -476 -948 -609 -963
-635 -38 -64 -16 -155 46 -192 31 -20 65 -20 1967 -20 1900 0 1936 0 1967 20
18 10 40 31 49 46 25 37 24 116 -2 152 -16 21 -1112 728 -1851 1193 -129 81
-167 91 -228 59z m752 -731 c373 -237 685 -437 693 -445 12 -12 -182 -14
-1380 -14 -1042 0 -1391 3 -1383 11 20 20 1367 877 1380 878 7 1 317 -193 690
-430z"/>
</g>
</svg>
