<?xml version="1.0" encoding="utf-8"?>

<!DOCTYPE svg PUBLIC "-//W3C//DTD SVG 1.1//EN" "http://www.w3.org/Graphics/SVG/1.1/DTD/svg11.dtd">
<!-- Uploaded to: SVG Repo, www.svgrepo.com, Generator: SVG Repo Mixer Tools -->
<svg version="1.1" id="_x32_" xmlns="http://www.w3.org/2000/svg" xmlns:xlink="http://www.w3.org/1999/xlink" 
	 viewBox="0 0 512 512"  xml:space="preserve">
<g>
	<path class="st0" d="M441.123,301.182c0,0-18.339,0-33.781,0c-29.613,0-72.404,0-72.404,0
		c-28.19-3.163-36.485-51.044-22.89-116.593c8.207-39.524,24.55-71.256,24.55-103.995C336.599,36.088,300.511,0,255.996,0
		c-44.506,0-80.594,36.088-80.594,80.594c0,32.74,16.352,64.472,24.55,103.995c13.595,65.549,5.3,113.43-22.89,116.593
		c0,0-42.793,0-72.404,0c-15.442,0-33.782,0-33.782,0c-22.562,0-40.858,18.295-40.858,40.858v97.052h451.963V342.04
		C481.981,319.477,463.687,301.182,441.123,301.182z"/>
	<rect x="64.242" y="471.884" class="st0" width="383.525" height="40.116"/>
</g>
</svg>