<?xml version="1.0" encoding="utf-8"?>
<!-- Uploaded to: SVG Repo, www.svgrepo.com, Generator: SVG Repo Mixer Tools -->
<svg fill="#000000" width="800px" height="800px" viewBox="0 0 32 32" version="1.1" xmlns="http://www.w3.org/2000/svg">
<title>user-slash</title>
<path d="M14.333 17.84c-6.557 0.73-11.813 5.533-13.213 11.791l-0.019 0.101c-0.018 0.080-0.029 0.173-0.029 0.268 0 0.691 0.56 1.251 1.251 1.251 0.596 0 1.094-0.417 1.22-0.975l0.002-0.008c1.185-5.317 5.579-9.333 11.003-9.938l0.058-0.005c0.629-0.071 1.114-0.6 1.114-1.242 0-0.69-0.559-1.25-1.25-1.25-0.048 0-0.095 0.003-0.141 0.008l0.006-0.001zM30.885 29.115l-0.183-0.183c-1.468-5.157-5.447-9.136-10.496-10.577l-0.108-0.026-1.53-1.53c3.326-1.106 5.682-4.189 5.682-7.823 0-4.543-3.683-8.227-8.227-8.227-3.634 0-6.718 2.356-7.806 5.624l-0.017 0.058-5.316-5.316c-0.226-0.225-0.537-0.363-0.881-0.363-0.69 0-1.25 0.56-1.25 1.25 0 0.344 0.139 0.655 0.363 0.881l27.999 28.001c0.226 0.226 0.539 0.366 0.884 0.366 0.691 0 1.251-0.56 1.251-1.251 0-0.345-0.14-0.658-0.366-0.884l0 0zM16 3.25c0.004 0 0.009-0 0.015-0 3.168 0 5.735 2.568 5.735 5.735 0 3.007-2.314 5.473-5.258 5.716l-0.021 0.001-6.173-6.173c0.244-2.96 2.702-5.27 5.701-5.28h0.001z"></path>
</svg>